<svg id="Capa_1" enable-background="new 0 0 497 497" height="512" viewBox="0 0 497 497" width="512" xmlns="http://www.w3.org/2000/svg"><g><g><path d="m248.5 55.567c-137.243 0-248.5 90.719-248.5 202.626 0 111.908 111.257 202.627 248.5 202.627s248.5-90.719 248.5-202.627c0-111.907-111.257-202.626-248.5-202.626zm-174.291 202.627c0 2.068-.298 4.065-.854 5.952-2.005 6.806-1.953 14.115.024 20.929.604 2.08.895 4.293.819 6.585-.358 10.788-9.08 19.722-19.857 20.318-12.178.674-22.263-9.002-22.263-21.033 0-2.068.298-4.065.854-5.952 1.997-6.778 1.997-14.069 0-20.848-.556-1.887-.854-3.884-.854-5.952s.298-4.065.854-5.952c2.005-6.806 1.953-14.115-.024-20.929-.604-2.08-.894-4.293-.819-6.585.358-10.788 9.081-19.722 19.858-20.318 12.178-.673 22.263 9.002 22.263 21.033 0 2.068-.298 4.065-.854 5.952-1.997 6.778-1.997 14.069 0 20.847.555 1.887.853 3.885.853 5.953zm390.847 32.751c0 12.031-10.086 21.707-22.263 21.033-10.777-.596-19.5-9.531-19.857-20.318-.077-2.336.226-4.59.854-6.705 2.014-6.788 2.049-13.933.016-20.716-.574-1.915-.882-3.944-.882-6.046s.308-4.131.882-6.046c2.033-6.783 1.997-13.928-.016-20.716-.627-2.115-.931-4.369-.854-6.705.358-10.788 9.081-19.722 19.858-20.318 12.177-.673 22.263 9.002 22.263 21.033 0 2.068-.298 4.065-.854 5.952-2.013 6.834-2.013 14.014 0 20.847.556 1.887.854 3.884.854 5.952s-.298 4.065-.854 5.952c-2.013 6.834-2.013 14.014 0 20.847.555 1.889.853 3.887.853 5.954z" fill="#faf0b0"/></g><g><path d="m248.5 55.567c-5.038 0-10.036.137-15 .378 111.329 5.407 202.923 70.563 227.191 156.693 2.727 3.551 4.365 7.981 4.365 12.804 0 1.53-.17 3.018-.48 4.455 1.585 9.249 2.424 18.692 2.424 28.297s-.839 19.049-2.424 28.297c.31 1.436.48 2.925.48 4.455 0 4.823-1.638 9.253-4.365 12.805-24.268 86.13-115.863 151.286-227.191 156.693 4.964.241 9.962.378 15 .378 137.243 0 248.5-90.719 248.5-202.627 0-111.909-111.257-202.628-248.5-202.628z" fill="#f7e365"/></g><g><circle cx="248.5" cy="258.194" fill="#f7e365" r="150.163"/></g><g><path d="m248.5 108.03c-5.063 0-10.066.255-15 .744 75.89 7.527 135.163 71.549 135.163 149.419s-59.274 141.893-135.163 149.42c4.934.489 9.937.744 15 .744 82.933 0 150.163-67.23 150.163-150.164 0-82.932-67.23-150.163-150.163-150.163z" fill="#f5de46"/></g><g><path d="m250.486 108.03c-6.108 0-12.128.374-18.045 1.083v133.435h-133.296c-.532 5.143-.809 10.362-.809 15.645 0 4.918.244 9.778.706 14.575h133.399v134.506c5.917.709 11.937 1.083 18.045 1.083 4.746 0 9.438-.231 14.072-.661v-299.004c-4.633-.431-9.325-.662-14.072-.662z" fill="#ecc52e"/></g><g><path d="m405.378 137.531 76.917-76.917c5.59-5.59 5.59-14.653 0-20.243-5.59-5.59-14.653-5.59-20.243 0l-76.917 76.917z" fill="#9ec8fc"/></g><g><path d="m313.13 149.194c-18.543 18.543-20.088 47.061-3.452 63.697s45.155 15.091 63.697-3.452c12.475-12.475 17.255-29.464 13.982-44.314-1.074-4.872.329-9.958 3.857-13.486l14.136-14.136-20.284-20.284-14.136 14.136c-3.528 3.528-8.614 4.931-13.486 3.857-14.849-3.272-31.839 1.507-44.314 13.982z" fill="#ddebfd"/></g><g><path d="m225.9 280.268h.01z"/></g></g></svg>