<svg id="Layer_1" enable-background="new 0 0 510 510" height="512" viewBox="0 0 510 510" width="512" xmlns="http://www.w3.org/2000/svg"><g><g><path d="m502.093 318.121c.236-.91.463-1.826.688-2.743-.222.917-.455 1.83-.688 2.743z" fill="#afe6ff"/><path d="m255 0c-98.131 0-158.574 55.347-158.741 55.441-3.787 17.481-10.374 42.85-10.374 61.465 0 140.833 118.763 254.972 259.596 254.972 60.017 0 115.159-27.944 158.719-62.639.178-1.087 5.8-23.477 5.8-54.239 0-140.833-114.167-255-255-255z" fill="#fcb54c"/><path d="m504.2 309.239c-43.559 34.696-98.724 55.441-158.741 55.441-140.833 0-255-114.167-255-255 0-18.615 2.013-36.757 5.8-54.239-.006.005-.011.01-.017.014-58.645 46.72-96.242 118.737-96.242 199.545 0 140.833 114.167 255 255 255 119.042 0 219.002-81.583 247.093-191.879.233-.913.466-1.826.688-2.743.107-.436 1.068-4.523 1.419-6.139z" fill="#ff956a"/></g><g><g><path d="m323.899 403.282h-15.692l43.516-160.282h87.208c23.827 0 41.145 22.617 34.896 45.633-18.327 67.504-79.979 114.649-149.928 114.649zm46.177-136.282-30.22 111.308c52.372-6.428 96.724-44.085 110.808-95.963 2.1-7.732-3.713-15.345-11.733-15.345z" fill="#fff"/></g><g><path d="m181.821 233.673v36.342h223.538c1.968-11.759 3.009-23.908 3.009-36.342z" fill="#fff"/></g><g><path d="m187.188 270.015c-1.968-11.759-3.006-23.908-3.006-36.342h-96.617c0 12.435 1.042 24.583 3.009 36.342z" fill="#afe6ff"/></g><g><g><path d="m203.995 149.088c0 31.834-37.216 57.64-37.216 57.64s-28.943-25.806-28.943-57.64 28.943-57.64 28.943-57.64 37.216 25.807 37.216 57.64z" fill="#51c422"/></g><g><path d="m129.563 149.088c0 31.834 37.216 57.64 37.216 57.64v-115.279s-37.216 25.806-37.216 57.639z" fill="#37aa1b"/></g></g><g><g><path d="m139.031 127.153c22.51 22.51 14.442 67.073 14.442 67.073s-35.604.468-58.114-22.042-23.401-59.473-23.401-59.473 44.563-8.068 67.073 14.442z" fill="#51c422"/></g><g><path d="m86.4 179.784c22.51 22.51 67.073 14.442 67.073 14.442l-81.515-81.515s-8.068 44.563 14.442 67.073z" fill="#37aa1b"/></g></g><g><path d="m261.692 37.217c4.052 15.654-5.669 18.483-4.116 34.655 1.973 15.845 11.337 14.667 11.615 34.657-.247 19.672-9.699 19.359-11.594 34.655-1.519 16.183 8.153 19.084 4.095 34.656-5.241-18.166-14.046-15.365-15.905-34.656-1.311-18.774 8.159-19.256 8.406-34.657-.212-15.139-9.689-16.099-8.384-34.655 1.906-19.429 10.652-16.411 15.883-34.655z" fill="#fff"/></g><g><path d="m298.003 432.844h-100.072c-7.593 0-13.749-6.156-13.749-13.749v-14.009h127.57v14.009c0 7.594-6.156 13.749-13.749 13.749z" fill="#afe6ff"/></g><g><path d="m184.463 267.443c1.664 59.641 35.921 113.565 89.2 140.42 4.618 2.328 7.405 3.736 7.405 3.736 15.051 0 29.812-4.209 42.559-12.212 42.326-26.574 73.291-74.746 82.153-131.943h-221.317z" fill="#aa321e"/></g><g><path d="m172.307 399.386c12.747 8.003 27.508 12.212 42.559 12.212h66.202c3.43 0 6.844-.23 10.224-.662-53.604-22.114-94.162-76.637-104.521-143.493h-96.617c8.077 52.117 36.557 103.317 82.153 131.943z" fill="#872d1e"/></g><g><path d="m160.683 421.573v6.376c0 10.506 8.517 19.023 19.023 19.023h203.262c14.028 0 25.4-11.372 25.4-25.4h-247.685z" fill="#fff"/></g><g><path d="m162.707 421.573h-75.142c0 14.028 11.372 25.4 25.399 25.4h75.142c-14.027-.001-25.399-11.372-25.399-25.4z" fill="#afe6ff"/></g></g></g></svg>