<?xml version="1.0" encoding="iso-8859-1"?>
<!-- Generator: Adobe Illustrator 18.0.0, SVG Export Plug-In . SVG Version: 6.00 Build 0)  -->
<!DOCTYPE svg PUBLIC "-//W3C//DTD SVG 1.1//EN" "http://www.w3.org/Graphics/SVG/1.1/DTD/svg11.dtd">
<svg version="1.1" id="Capa_1" xmlns="http://www.w3.org/2000/svg" xmlns:xlink="http://www.w3.org/1999/xlink" x="0px" y="0px"
	 viewBox="0 0 59 59" style="enable-background:new 0 0 59 59;" xml:space="preserve">
<g>
	<path style="fill:#B0D3F0;" d="M19.531,10c-0.303,12.25-2.438,38-9.533,38c-7.062,0-9.21-25.507-9.529-37.825
		C0.466,10.077,0.546,10,0.644,10H19.531z"/>
	<rect x="8.669" y="47" style="fill:#B0D3F0;" width="2" height="9"/>
	<path style="fill:#B0D3F0;" d="M40.053,7.895c5.074,11.154,14.39,35.255,8.006,38.351c-6.384,3.096-19.543-19.141-25.161-30.03
		L40.053,7.895z"/>
	<path style="fill:#90BAE1;" d="M48.551,58.943c-0.32,0.155-0.717-0.019-0.797-0.367c-0.304-1.331,0.335-2.744,1.617-3.365
		l5.399-2.618c1.281-0.621,2.787-0.249,3.644,0.814c0.223,0.277,0.115,0.697-0.205,0.853L48.551,58.943z"/>
	
		<rect x="43.187" y="47.451" transform="matrix(0.453 0.8915 -0.8915 0.453 70.1628 -17.4492)" style="fill:#B0D3F0;" width="12.228" height="2"/>
	<g>
		<path style="fill:#D1D4D1;" d="M22.531,0c-0.552,0-1,0.447-1,1v4c0,0.553,0.448,1,1,1s1-0.447,1-1V1
			C23.531,0.447,23.083,0,22.531,0z"/>
		<path style="fill:#D1D4D1;" d="M30.238,2.293c-0.391-0.391-1.023-0.391-1.414,0l-3,3c-0.391,0.391-0.391,1.023,0,1.414
			C26.019,6.902,26.275,7,26.531,7s0.512-0.098,0.707-0.293l3-3C30.629,3.316,30.629,2.684,30.238,2.293z"/>
		<path style="fill:#D1D4D1;" d="M31.531,8h-3c-0.552,0-1,0.447-1,1s0.448,1,1,1h3c0.552,0,1-0.447,1-1S32.083,8,31.531,8z"/>
		<path style="fill:#D1D4D1;" d="M16.238,2.293c-0.391-0.391-1.023-0.391-1.414,0s-0.391,1.023,0,1.414l3,3
			C18.019,6.902,18.275,7,18.531,7s0.512-0.098,0.707-0.293c0.391-0.391,0.391-1.023,0-1.414L16.238,2.293z"/>
	</g>
	<path style="fill:#F0C419;" d="M18.465,25h-16l-0.987,0.135C2.72,36.446,5.245,48,9.998,48c4.763,0,7.289-11.605,8.528-22.939
		L18.465,25z"/>
	<circle style="fill:#ECF0F1;" cx="7.669" cy="30.5" r="1.5"/>
	<circle style="fill:#ECF0F1;" cx="13.669" cy="33.5" r="1.5"/>
	<circle style="fill:#ECF0F1;" cx="9.669" cy="37.5" r="1.5"/>
	<path style="fill:#90BAE1;" d="M4.771,59c-0.667,0-1.096-0.7-0.806-1.301C4.449,56.694,5.478,56,6.669,56h6
		c1.191,0,2.219,0.694,2.704,1.699C15.662,58.3,15.233,59,14.567,59H4.771z"/>
	<path style="fill:#F0C419;" d="M30.416,29.394c6.053,9.634,13.366,18.926,17.642,16.852c3.325-1.613,2.388-8.926,0.012-17.137
		L47.531,29h-17L30.416,29.394z"/>
	<circle style="fill:#ECF0F1;" cx="37.709" cy="32.927" r="1.5"/>
	<circle style="fill:#ECF0F1;" cx="44.416" cy="33.008" r="1.5"/>
	<circle style="fill:#ECF0F1;" cx="42.563" cy="38.352" r="1.5"/>
</g>
<g>
</g>
<g>
</g>
<g>
</g>
<g>
</g>
<g>
</g>
<g>
</g>
<g>
</g>
<g>
</g>
<g>
</g>
<g>
</g>
<g>
</g>
<g>
</g>
<g>
</g>
<g>
</g>
<g>
</g>
</svg>
