<svg id="Capa_1" enable-background="new 0 0 512 512" height="512" viewBox="0 0 512 512" width="512" xmlns="http://www.w3.org/2000/svg"><g><g><path d="m81.302 269.977h187.568v174.154h-187.568z" fill="#fff0d7"/></g><g><path d="m261.689 502h-173.206c-10.753 0-19.47-8.717-19.47-19.47v-38.399h212.147v38.399c-.001 10.753-8.718 19.47-19.471 19.47z" fill="#f39364"/></g><g><path d="m88.483 212.108h173.206c10.753 0 19.47 8.717 19.47 19.47v38.399h-212.146v-38.399c0-10.753 8.717-19.471 19.47-19.47z" fill="#f39364"/></g><g><path d="m269.251 213.625c-2.329-.978-4.88-1.522-7.561-1.522h-173.208c-2.672 0-5.222.534-7.541 1.512 4.668-2.147 42.475-20.466 56.983-56.419h74.324c14.508 35.953 52.336 54.272 57.003 56.429z" fill="#f39364"/></g><g><path d="m205.22 61.418h-60.268c-5.005 0-9.063-4.058-9.063-9.063v-33.292c0-5.005 4.058-9.063 9.063-9.063h60.268c5.005 0 9.063 4.058 9.063 9.063v33.292c0 5.005-4.058 9.063-9.063 9.063z" fill="#ff7e96"/></g><g><path d="m201.053 61.418h-25.967-25.967s-27.175 40.869-11.19 95.779h74.315c15.985-54.91-11.191-95.779-11.191-95.779z" fill="#cbf4fb"/></g><g><path d="m268.87 336.063h-67.726v-.669c0-14.391-11.666-26.057-26.057-26.057-14.391 0-26.057 11.666-26.057 26.057v.669h-67.728v41.696h67.726c0 14.391 11.666 26.057 26.057 26.057 14.391 0 26.057-11.666 26.057-26.057h67.727z" fill="#ffd88a"/></g><g><path d="m328.724 388.472 22.152 113.528h69.96l22.152-113.528z" fill="#cbf4fb"/></g><g><path d="m385.856 468.544c-27.521 0-44.943-17.602-44.943-17.602l9.963 51.058h69.96l9.963-51.058s-17.422 17.602-44.943 17.602z" fill="#f9f5f3"/></g><g><path d="m273.648 204.653c-.068-.033-.132-.073-.201-.105-3.816-1.763-36.695-17.672-50.629-48.085 10.376-39.426.5-71.638-6.946-88.305 5.072-3.429 8.412-9.233 8.412-15.803v-33.292c-.001-10.511-8.553-19.063-19.064-19.063h-60.268c-10.511 0-19.063 8.552-19.063 19.063v33.292c0 6.569 3.34 12.373 8.412 15.802-7.447 16.666-17.323 48.879-6.946 88.305-13.964 30.504-46.785 46.316-50.593 48.067-.075.034-.142.077-.216.113-10.318 4.591-17.533 14.933-17.533 26.935v38.399c0 5.523 4.477 10 10 10h2.29v56.086 41.696 56.372h-2.29c-5.523 0-10 4.477-10 10v38.399c0 16.25 13.22 29.47 29.47 29.47h43.312c5.523 0 10-4.477 10-10s-4.477-10-10-10h-43.312c-5.222 0-9.47-4.249-9.47-9.47v-28.399h192.147v28.399c0 5.222-4.249 9.47-9.471 9.47h-41.903c-5.523 0-10 4.477-10 10s4.477 10 10 10h41.903c16.25 0 29.471-13.22 29.471-29.47v-38.399c0-5.523-4.478-10-10-10h-2.29v-56.372-41.696-56.086h2.29c5.445 0 10-4.555 10-10v-38.399c0-11.992-7.206-22.328-17.512-26.924zm-14.778 121.41h-48.95c-4.122-15.374-18.177-26.727-34.833-26.727s-30.711 11.353-34.833 26.727h-48.952v-46.086h167.568zm-167.568 20h57.727c5.523 0 10-4.477 10-10v-.669c0-8.854 7.203-16.058 16.057-16.058s16.058 7.204 16.058 16.058v.669c0 5.523 4.477 10 10 10h57.726v21.696h-57.726c-5.523 0-10 4.477-10 10 0 8.854-7.204 16.057-16.058 16.057s-16.057-7.203-16.057-16.057c0-5.523-4.477-10-10-10h-57.727zm0 88.068v-46.372h49.137c4.346 15.033 18.233 26.057 34.647 26.057s30.302-11.024 34.647-26.057h49.137v46.372zm179.858-202.553v28.399h-192.147v-28.399c0-5.222 4.249-9.47 9.47-9.47h173.206c5.222 0 9.471 4.248 9.471 9.47zm-125.482-84.381c-8.092-36.25 3.812-65.1 9.274-75.779h40.301c5.5 10.631 17.424 39.301 9.245 75.779zm.211-127.197h58.394v31.418h-58.394zm-1.5 147.197h61.387c7.187 14.587 17.584 26.155 27.745 34.906h-117.029c10.2-8.77 20.704-20.369 27.897-34.906z"/><path d="m450.706 382.115c-1.899-2.306-4.731-3.642-7.719-3.642h-114.263c-6.191 0-11.001 5.834-9.814 11.915l22.152 113.527c.916 4.696 5.03 8.085 9.814 8.085h69.96c4.784 0 8.898-3.389 9.814-8.085l22.151-113.527c.573-2.932-.195-5.967-2.095-8.273zm-19.858 16.358-9.211 47.206c-4.871 3.925-17.929 12.865-35.781 12.865-17.876 0-30.943-8.964-35.78-12.861l-9.212-47.21zm-71.734 93.527-3.906-20.018c8.233 3.642 18.593 6.562 30.648 6.562s22.416-2.92 30.649-6.561l-3.906 20.017z"/><path d="m185.56 498.18c-1.616-3.943-5.725-6.461-9.972-6.144-4.173.311-7.774 3.273-8.894 7.301-2.41 8.661 7.467 15.873 15.003 11.095 4.04-2.562 5.701-7.84 3.863-12.252z"/></g></g></svg>