<svg id="Capa_1" enable-background="new 0 0 425.308 425.308" height="512" viewBox="0 0 425.308 425.308" width="512" xmlns="http://www.w3.org/2000/svg"><g><path d="m122.258 153.607c-42.417 0-76.803-34.386-76.803-76.803s34.386-76.804 76.803-76.804 76.803 34.386 76.803 76.803z" fill="#a0be28"/><g><path d="m117.258 76.803 5.444 82.819 125.854 41.937 10-68.751-10-56.005z" fill="#fff5f5"/><path d="m248.556 76.803v124.756l125.847-41.846 5.45-82.91z" fill="#e6e6e6"/></g><g><path d="m222.434 164.686-.113.137-.113.137c-14.395 17.505-37.735 17.505-52.13 0l-.113-.137-.113-.137c-12.834-15.607-32.773-17.287-47.15-5.064l9.128 138.871 116.726 38.319 10-92.627-10-92.627c-9.453-.016-18.91 4.358-26.122 13.128z" fill="#ffe477"/><path d="m327.146 164.686-.113.137-.113.137c-14.395 17.505-37.735 17.505-52.13 0l-.113-.137-.113-.137c-7.183-8.735-16.594-13.11-26.009-13.127v185.253l116.673-38.263.045.055 9.129-138.891c-14.383-12.322-34.389-10.672-47.256 4.973z" fill="#ffcd00"/></g><g><path d="m225.241 298.549-.101.123-.101.123c-12.848 15.651-33.68 15.651-46.528 0l-.101-.123-.101-.123c-12.833-15.632-33.628-15.649-46.48-.056l8.336 126.815h108.39l10-52-10-86.496c-8.436-.016-16.877 3.896-23.314 11.737z" fill="#a0be28"/><path d="m365.274 298.604-.045-.055c-12.848-15.651-33.68-15.651-46.528 0l-.101.123-.101.123c-12.848 15.651-33.68 15.651-46.528 0l-.101-.123-.101-.123c-6.411-7.81-14.81-11.721-23.214-11.737v138.496h108.39z" fill="#4aa046"/></g></g></svg>