<?xml version="1.0" encoding="iso-8859-1"?>
<!-- Generator: Adobe Illustrator 19.0.0, SVG Export Plug-In . SVG Version: 6.00 Build 0)  -->
<svg version="1.1" id="Capa_1" xmlns="http://www.w3.org/2000/svg" xmlns:xlink="http://www.w3.org/1999/xlink" x="0px" y="0px"
	 viewBox="0 0 512 512" style="enable-background:new 0 0 512 512;" xml:space="preserve">
<g transform="translate(-1)">
	<path style="fill:#B0D3F0;" d="M252.677,381.831v96.586c29.939,3.818,52.068,17.443,52.068,33.584H165.898
		c0-16.141,22.129-29.765,52.068-33.584v-96.586H252.677z"/>
	<path style="fill:#F29C1F;" d="M324.618,136.939c4.839,1.296,9.83,1.938,14.839,1.909c33.549,0,60.746-27.197,60.746-60.746
		s-27.197-60.746-60.746-60.746s-60.746,27.197-60.746,60.746L324.618,136.939z"/>
	<path style="fill:#B0D3F0;" d="M337.808,229.793c-10.383-16.431-15.834-35.495-15.707-54.932c0-6.248,0.174-12.41,0.607-18.658
		c0.174-3.471,0.434-7.029,0.781-10.5c1.502-14.451,4.408-28.721,8.678-42.609l3.992-13.885c0.777-2.623,0.267-5.459-1.374-7.647
		c-1.641-2.188-4.221-3.472-6.956-3.461H142.814c-2.735-0.011-5.315,1.272-6.956,3.461c-1.641,2.188-2.151,5.024-1.374,7.647
		l3.992,13.885c4.27,13.887,7.176,28.158,8.678,42.609c0.347,3.471,0.607,7.029,0.781,10.5c0.434,6.248,0.607,12.409,0.607,18.658
		v3.818c-0.306,18.339-5.813,36.215-15.881,51.547c-32.12,50.915-22.09,117.677,23.572,156.908s113.172,39.088,158.668-0.336
		C360.396,347.375,370.143,280.572,337.808,229.793z"/>
	<path style="fill:#46B29D;" d="M356.813,295.051c0.085,51.717-32.574,97.82-81.391,114.894s-103.092,1.378-135.259-39.117
		s-35.178-96.914-7.502-140.602c10.068-15.332,15.575-33.208,15.881-51.547v-3.818c0-6.248-0.174-12.41-0.607-18.658h174.774
		c-0.434,6.248-0.607,12.409-0.607,18.658c-0.127,19.436,5.324,38.501,15.707,54.932
		C350.273,249.272,356.87,271.926,356.813,295.051z"/>
	<g>
		<path style="fill:#65DDB9;" d="M157.915,305.729c-2.518-18.225,1.509-36.752,11.364-52.288c1.685-2.619,1.837-5.941,0.399-8.704
			c-1.439-2.763-4.248-4.542-7.36-4.663s-6.051,1.436-7.699,4.079c-23.701,37.393-18.481,86.192,12.593,117.725
			c3.358,3.417,8.85,3.464,12.267,0.106s3.464-8.85,0.106-12.267C167.806,337.775,160.205,322.345,157.915,305.729z"/>
		<path style="fill:#65DDB9;" d="M211.898,369.615c-2.65-0.837-5.253-1.817-7.797-2.936c-4.388-1.928-9.508,0.066-11.436,4.453
			c-1.928,4.388,0.066,9.508,4.453,11.436c3.119,1.372,6.31,2.573,9.559,3.597c4.57,1.442,9.444-1.095,10.886-5.665
			C219.005,375.93,216.468,371.056,211.898,369.615z"/>
	</g>
	<path style="fill:#E4C05C;" d="M235.321,34.712v69.424H200.61V43.39c-0.014-4.787-3.891-8.664-8.678-8.678h-52.328
		c-4.686-0.014-8.521-3.734-8.678-8.418l-0.434-17.356c-0.092-2.352,0.784-4.64,2.424-6.329c1.64-1.689,3.9-2.632,6.254-2.609h61.44
		c9.207-0.003,18.038,3.654,24.548,10.164C231.668,16.675,235.324,25.505,235.321,34.712z"/>
	<rect x="200.61" y="78.102" style="fill:#8697CB;" width="34.712" height="78.102"/>
</g>
<g>
</g>
<g>
</g>
<g>
</g>
<g>
</g>
<g>
</g>
<g>
</g>
<g>
</g>
<g>
</g>
<g>
</g>
<g>
</g>
<g>
</g>
<g>
</g>
<g>
</g>
<g>
</g>
<g>
</g>
</svg>
