<svg id="Capa_1" enable-background="new 0 0 512 512" height="512" viewBox="0 0 512 512" width="512" xmlns="http://www.w3.org/2000/svg"><g><path d="m370.141 422h-23.191l10.8-21.687c11.446-22.983 17.25-47.649 17.25-73.313v-3c0-67.379 54.621-122 122-122 8.284 0 15 6.716 15 15v49.999c0 8.285-6.716 15.001-15.001 15.001-21.43 0-39.216 16.561-40.742 37.937l-1.748 24.472c-1.607 22.488-12.11 43.229-29.432 57.88-15.303 12.944-34.892 19.711-54.936 19.711z" fill="#7d4a3b"/><path d="m195 142c-19.299 0-35-15.701-35-35s15.701-35 35-35 35 15.701 35 35-15.701 35-35 35z" fill="#7d4a3b"/><path d="m195 72v70c19.299 0 35-15.701 35-35s-15.701-35-35-35z" fill="#4f4540"/><path d="m350.723 252c-8.284 0-15-6.716-15-15v-66.277c0-77.595-63.128-140.723-140.723-140.723s-140.723 63.128-140.723 140.723v66.277c0 8.284-6.716 15-15 15s-15-6.716-15-15v-66.277c0-94.137 76.586-170.723 170.723-170.723s170.723 76.586 170.723 170.723v66.277c0 8.284-6.716 15-15 15z" fill="#007578"/><path d="m195 0v30c77.595 0 140.723 63.128 140.723 140.723v66.277c0 8.284 6.716 15 15 15s15-6.716 15-15v-66.277c0-94.137-76.586-170.723-170.723-170.723z" fill="#05303d"/><path d="m195 132c-75.078 0-140.372 42.656-172.947 105l30 15h285.895l30-15c-32.576-62.344-97.87-105-172.948-105z" fill="#9d7552"/><path d="m367.947 237c-32.575-62.344-97.869-105-172.947-105v120h142.947z" fill="#7d4a3b"/><path d="m22.053 237c-14.078 26.942-22.053 57.555-22.053 90 0 52.681 20.749 102.062 58.424 139.045 2.025 1.988 4.573 3.36 7.347 3.958l100.474 21.66c1.039.224 2.099.337 3.161.337h125.014c2.953 0 5.839-.871 8.299-2.505 54.653-36.297 87.281-97.043 87.281-162.495 0-32.445-7.975-63.058-22.053-90h-77.947l-15 20-15-20z" fill="#7d4a3b"/><path d="m367.947 237h-77.947l-15 20-15-20h-65v255h99.42c2.953 0 5.839-.871 8.299-2.505 54.653-36.297 87.281-97.043 87.281-162.495 0-32.445-7.975-63.058-22.053-90z" fill="#4f4540"/><path d="m110 512h-40c-2.329 0-4.625-.542-6.708-1.583-29.788-14.895-48.292-44.835-48.292-78.138v-55.279c0-8.284 6.716-15 15-15h120c8.284 0 15 6.716 15 15v55.279c0 33.303-18.504 63.244-48.292 78.138-2.083 1.041-4.379 1.583-6.708 1.583z" fill="#e48945"/><path d="m150 362h-60v150h20c2.329 0 4.625-.542 6.708-1.583 29.788-14.895 48.292-44.835 48.292-78.138v-55.279c0-8.284-6.716-15-15-15z" fill="#9d7552"/><g><path d="m260 237v50c0 8.284 6.716 15 15 15s15-6.716 15-15v-50z" fill="#e2dff4"/></g><path d="m305 382h-60c-8.284 0-15-6.716-15-15v-60c0-5.015 2.506-9.699 6.68-12.481l30-20c5.038-3.358 11.603-3.358 16.641 0l30 20c4.173 2.782 6.68 7.466 6.68 12.481v60c-.001 8.284-6.717 15-15.001 15z" fill="#ff4a4a"/></g></svg>