<svg height="512" viewBox="0 0 54 58" width="512" xmlns="http://www.w3.org/2000/svg"><g id="020---Wine" fill="none"><path id="Shape" d="m53.45 19-18.07 3-.62-4c.51-2.39 1-4.79 1.54-7.18.0917721-.5435969.6061708-.9103856 1.15-.82h13.1c.5438292-.0903856 1.0582279.2764031 1.15.82.5866667 2.7333333 1.17 5.46 1.75 8.18z" fill="#90bae1"/><path id="Shape" d="m39.1 19c-.3081435.0075728-.6025606-.1273825-.7979604-.3657702-.1953997-.2383877-.2699447-.5535661-.2020396-.8542298l.9-4c.0785984-.3572656.3418253-.6454609.6905256-.7560254.3487003-.1105646.7298981-.0267011 1 .22.2701019.246701.3880728.6187598.3094744.9760254l-.9 4c-.1047542.4651526-.5233401.7916496-1 .78z" fill="#fff"/><path id="Shape" d="m35 53.06c4 .25 7 1.25 7 2.44 0 1.38-4 2.5-9 2.5s-9-1.12-9-2.5c0-1.19 3-2.19 7-2.44z" fill="#b0d3f0"/><path id="Shape" d="m46 45.06c4 .25 7 1.25 7 2.44 0 1.38-4 2.5-9 2.5s-9-1.12-9-2.5c0-1.19 3-2.19 7-2.44z" fill="#90bae1"/><path id="Shape" d="m42 30v16c0 .5522847.4477153 1 1 1h2c.2759471.0004972.5398345-.1130554.7291954-.313778.1893608-.2007225.2873619-.4707716.2708046-.746222v-15.07z" fill="#95a5a5"/><path id="Shape" d="m35 38.82v15.11c.0194471.2771218-.0772604.5498443-.2669458.7528077-.1896854.2029633-.4552517.3178738-.7330542.3171923h-2c-.2778025.0006815-.5433688-.114229-.7330542-.3171923-.1896854-.2029634-.2863929-.4756859-.2669458-.7528077v-15.11z" fill="#95a5a5"/><path id="Shape" d="m43 31-7.62-12h18.07c.12.53.22 1.05.34 1.58 1.21 5.05-3.65 11-10.79 10.42z" fill="#802f34"/><path id="Shape" d="m13 2v10.67c.0098313 1.9415344.9508753 3.7603904 2.53 4.89 1.5514104 1.1287725 2.4694528 2.9314064 2.47 4.85v32.31c.0038657.8457239-.5246482 1.6024597-1.32 1.89-4.9511049 1.8598313-10.40889513 1.8598313-15.36 0-.79535176-.2875403-1.32386566-1.0442761-1.32-1.89v-32.31c.00287289-1.9203896.92481042-3.7233723 2.48-4.85 1.58177288-1.1262086 2.52074461-2.9482609 2.52-4.89v-10.67z" fill="#4c8056"/><path id="Shape" d="m12.11 4v8.67c-.028909 1.834693.6936764 3.6014143 2 4.89 1.2638239 1.2920624 1.9463365 3.0434834 1.89 4.85v32.31c.0430462.7667184-.3418965 1.4942603-1 1.89-3.7790649 1.8801493-8.22093508 1.8801493-12 0-.65810346-.3957397-1.04304623-1.1232816-1-1.89v-32.31c-.04373588-1.810063.64915983-3.5603465 1.92-4.85 1.31030915-1.285912 2.03362584-3.0544213 2-4.89v-8.67z" fill="#71c285"/><path id="Rectangle-path" d="m0 29h18v18h-18z" fill="#f3d55b"/><path id="Rectangle-path" d="m2 29h14v18h-14z" fill="#f9eab0"/><path id="Shape" d="m6 0h6c.5522847 0 1 .44771525 1 1v3h-8v-3c0-.55228475.44771525-1 1-1z" fill="#b19046"/><path id="Shape" d="m4 25c-.55228475 0-1-.4477153-1-1 0-4 2.62-5 4-5 .55228475 0 1 .4477153 1 1s-.44771525 1-1 1c-.34 0-2 .21-2 3 0 .5522847-.44771525 1-1 1z" fill="#fff"/><path id="Shape" d="m33 39c-6.64 0-10.91-5.63-9.79-10.42.7-3 1.4-6.54 2.09-9.73.0369242-.2665723.1797339-.5070103.3961516-.6669713.2164178-.159961.4881744-.2259414.7538484-.1830287h13.1c.5438292-.0903856 1.0582279.2764031 1.15.82.7 3.22 1.39 6.78 2.09 9.73 1.12 4.75-3.09 10.45-9.79 10.45z" fill="#b0d3f0"/><path id="Shape" d="m33 39c-6.64 0-10.91-5.63-9.79-10.42l.12-.58h19.34l.12.58c1.12 4.72-3.09 10.42-9.79 10.42z" fill="#cc4b4c"/><path id="Shape" d="m27 32c-.3081435.0075728-.6025606-.1273825-.7979604-.3657702-.1953997-.2383877-.2699447-.5535661-.2020396-.8542298l2-9c.1215026-.5522847.6677153-.9015026 1.22-.78s.9015026.6677153.78 1.22l-2 9c-.1047542.4651526-.5233401.7916496-1 .78z" fill="#fff"/></g></svg>