<svg height="512pt" viewBox="0 0 512 512.0414" width="512pt" xmlns="http://www.w3.org/2000/svg"><path d="m309.738281 112.855469h-187.617187c-2.40625 0-4.699219.996093-6.339844 2.75-1.644531 1.753906-2.484375 4.113281-2.320312 6.511719l2.671874 39.59375 14.980469 162.941406 14.984375 162.941406c.820313 8.933594 8.3125 15.769531 17.28125 15.769531h237.480469c8.914063 0 16.378906-6.753906 17.269531-15.621093l12.148438-121.097657 12.144531-121.105469zm0 0" fill="#90bae1"/><path d="m277.714844 112.855469v390.507812h-114.375c-4.320313 0-8.480469-1.621093-11.660156-4.546875-3.199219-2.925781-5.195313-6.933594-5.609376-11.246094l-29.9375-325.859374-1.347656-19.785157-1.34375-19.785156c-.164062-2.40625.675782-4.769531 2.320313-6.53125 1.644531-1.757813 3.949219-2.757813 6.359375-2.753906zm0 0" fill="#b0d3f0"/><path d="m428.019531 388.898438-4.949219 49.421874-4.945312 49.421876c-.882812 8.875-8.351562 15.628906-17.269531 15.621093h-123.140625v-34.886719c.695312.085938 1.410156.128907 2.136718.152344.726563.023438 1.464844.023438 2.203126.023438 27.910156-.199219 55.308593-7.53125 79.585937-21.296875 25.90625-14.71875 48.503906-34.617188 66.378906-58.457031zm0 0" fill="#2980ba"/><path d="m277.714844 468.476562v34.886719h-114.375c-4.320313 0-8.480469-1.621093-11.660156-4.546875-3.199219-2.925781-5.195313-6.933594-5.609376-11.246094l-4.425781-48.339843-4.425781-48.335938c17.359375 22.785157 39.125 41.84375 64 56.039063 23.371094 13.289062 49.625 20.683594 76.496094 21.542968zm0 0" fill="#3b97d3"/><path d="m442.421875 245.539062-7.203125 71.679688-7.199219 71.679688c-17.875 23.839843-40.472656 43.738281-66.378906 58.457031-24.277344 13.765625-51.675781 21.097656-79.585937 21.296875-.738282 0-1.476563 0-2.203126-.023438-.726562-.023437-1.441406-.066406-2.136718-.152344v-286.199218h101.445312zm0 0" fill="#d25627"/><path d="m277.714844 182.277344v286.199218c-26.871094-.859374-53.125-8.253906-76.496094-21.542968-24.875-14.195313-46.640625-33.253906-64-56.039063l-19.179688-208.617187zm0 0" fill="#e57e25"/><path d="m208.277344 381.871094c-4.34375-.003906-8.015625-3.222656-8.589844-7.53125l-8.679688-65.082032-8.675781-65.085937c-.632812-4.75 2.703125-9.117187 7.453125-9.75 2.277344-.292969 4.582032.324219 6.40625 1.71875 1.835938 1.386719 3.039063 3.453125 3.34375 5.734375l8.675782 65.085938 8.679687 65.082031c.632813 4.753906-2.703125 9.117187-7.453125 9.75-.195312.027343-.390625.046875-.582031.058593-.195313.011719-.386719.019532-.578125.019532zm0 0" fill="#fac176"/><path d="m173.566406 373.191406c-4.371094-.003906-8.054687-3.261718-8.597656-7.601562l-8.675781-69.421875-8.679688-69.425781c-.59375-4.753907 2.78125-9.089844 7.535157-9.683594 2.273437-.300782 4.574218.328125 6.378906 1.746094 1.828125 1.410156 3.019531 3.492187 3.308594 5.785156l8.675781 69.425781 8.679687 69.421875c.59375 4.757812-2.78125 9.09375-7.535156 9.6875-.183594.023438-.363281.039062-.546875.050781-.179687.011719-.363281.015625-.542969.015625zm0 0" fill="#fac176"/><path d="m243.003906 46.164062c61.550782-61.550781 161.34375-61.550781 222.894532 0 61.550781 61.550782 61.550781 161.34375 0 222.894532zm0 0" fill="#4c8056"/><g fill="#95a5a5"><path d="m98.019531 497.226562c2.929688-2.925781 7.515625-3.378906 10.957031-1.078124 3.441407 2.300781 4.78125 6.710937 3.195313 10.535156-1.582031 3.824218-5.648437 5.996094-9.707031 5.191406-4.0625-.808594-6.988282-4.371094-6.988282-8.511719 0-2.304687.914063-4.511719 2.542969-6.136719zm0 0"/><path d="m71.984375 471.191406c2.929687-2.925781 7.515625-3.378906 10.960937-1.078125 3.441407 2.300781 4.777344 6.710938 3.195313 10.535157-1.585937 3.824218-5.652344 6-9.710937 5.191406-4.0625-.808594-6.984376-4.371094-6.984376-8.511719-.003906-2.300781.910157-4.511719 2.539063-6.136719zm0 0"/><path d="m45.953125 488.546875c2.925781-2.925781 7.515625-3.378906 10.957031-1.078125s4.78125 6.710938 3.195313 10.535156c-1.585938 3.828125-5.648438 6-9.710938 5.191406-4.058593-.808593-6.984375-4.371093-6.984375-8.511718-.003906-2.300782.910156-4.507813 2.542969-6.136719zm0 0"/><path d="m63.308594 427.800781c2.925781-2.925781 7.515625-3.378906 10.957031-1.078125 3.441406 2.300782 4.78125 6.710938 3.195313 10.539063-1.582032 3.824219-5.648438 5.996093-9.710938 5.1875-4.058594-.808594-6.984375-4.371094-6.984375-8.511719-.003906-2.300781.914063-4.507812 2.542969-6.136719zm0 0"/><path d="m1.113281 499.148438c2.011719-3.621094 6.296875-5.316407 10.238281-4.050782 3.945313 1.265625 6.441407 5.140625 5.96875 9.253906-.472656 4.113282-3.785156 7.316407-7.910156 7.65625-4.125.339844-7.917968-2.285156-9.054687-6.265624-.632813-2.210938-.35937525-4.585938.757812-6.59375zm0 0"/><path d="m37.273438 453.835938c2.929687-2.925782 7.515624-3.378907 10.957031-1.078126 3.441406 2.300782 4.78125 6.710938 3.195312 10.535157-1.582031 3.824219-5.648437 6-9.707031 5.191406-4.0625-.808594-6.988281-4.371094-6.988281-8.511719 0-2.300781.914062-4.511718 2.542969-6.136718zm0 0"/><path d="m11.238281 471.191406c2.929688-2.925781 7.515625-3.378906 10.960938-1.078125 3.441406 2.300781 4.777343 6.710938 3.195312 10.535157-1.585937 3.824218-5.652343 6-9.710937 5.191406-4.0625-.808594-6.984375-4.371094-6.984375-8.511719-.003907-2.300781.910156-4.511719 2.539062-6.136719zm0 0"/><path d="m98.019531 453.835938c2.929688-2.925782 7.515625-3.378907 10.957031-1.078126 3.441407 2.300782 4.78125 6.710938 3.195313 10.535157-1.582031 3.824219-5.648437 6-9.707031 5.191406-4.0625-.808594-6.988282-4.371094-6.988282-8.511719 0-2.300781.914063-4.511718 2.542969-6.136718zm0 0"/></g><path d="m392.089844 159.28125c-1.5 4.984375-4.210938 9.515625-7.894532 13.191406-1.28125 1.285156-2.671874 2.453125-4.15625 3.492188-1.445312 1.011718-2.992187 1.878906-4.609374 2.582031l-41.914063-41.914063c.703125-1.621093 1.570313-3.164062 2.582031-4.613281 1.039063-1.484375 2.207032-2.875 3.492188-4.152343 3.675781-3.683594 8.207031-6.398438 13.191406-7.898438 5.378906-1.601562 11.089844-1.757812 16.550781-.441406 11.46875 2.777344 20.425781 11.730468 23.203125 23.199218 1.3125 5.460938 1.160156 11.171876-.445312 16.554688zm0 0" fill="#4c8056"/><path d="m352.78125 119.96875c-4.984375 1.5-9.515625 4.214844-13.191406 7.898438-1.285156 1.277343-2.453125 2.667968-3.492188 4.152343-1.011718 1.449219-1.878906 2.992188-2.582031 4.613281l-67.949219-67.949218c11.070313-10.339844 23.910156-18.605469 37.902344-24.40625 14.460938-5.992188 29.925781-9.191406 45.578125-9.4375l.089844 3.035156.085937 3.039062 1.777344 39.527344zm0 0" fill="#71c285"/><path d="m440.425781 71.632812-28.113281 28.117188-28.117188 28.117188c-4.089843-4.101563-9.234374-6.988282-14.863281-8.339844-5.460937-1.316406-11.171875-1.160156-16.550781.441406l-1.78125-39.527344-1.777344-39.527344-.085937-3.039062-.089844-3.035156c.390625-.042969.804687-.066406 1.214844-.078125.414062-.007813.824219-.007813 1.214843-.007813 33.378907-.042968 65.394532 13.230469 88.949219 36.878906zm0 0" fill="#65ddb9"/><path d="m477.308594 160.582031c0 .390625 0 .804688-.011719 1.214844-.011719.414063-.03125.824219-.074219 1.214844l-3.039062-.085938-3.035156-.085937-39.53125-1.78125-39.527344-1.777344c1.605468-5.382812 1.757812-11.09375.445312-16.554688-1.355468-5.628906-4.242187-10.773437-8.339844-14.859374l28.117188-28.117188 28.113281-28.117188c23.648438 23.554688 36.921875 55.570313 36.882813 88.949219zm0 0" fill="#71c285"/><path d="m477.222656 163.011719c-.238281 15.640625-3.429687 31.09375-9.40625 45.550781-5.804687 14.003906-14.082031 26.855469-24.4375 37.933594l-67.949218-67.949219c1.617187-.703125 3.164062-1.570313 4.609374-2.582031 1.484376-1.039063 2.875-2.207032 4.15625-3.492188 3.683594-3.675781 6.394532-8.207031 7.894532-13.191406l39.527344 1.777344 39.53125 1.78125 3.035156.085937zm0 0" fill="#65ddb9"/></svg>