<svg id="flat" height="512" viewBox="0 0 512 512" width="512" xmlns="http://www.w3.org/2000/svg"><path d="m299.63 142.555 20.37-30.555 64 24h72v32l-68.591 9.799-54.12-8.469z" fill="#de9400"/><path d="m376 168 88 32-8 40-91.623-22.906z" fill="#eda600"/><path d="m350.031 192.041-30.031-40.041 32-16 32 40 12.204 36.611z" fill="#cf8300"/><path d="m364.377 185.283-76.377-57.283-31.177 31.177 79.177 64.823z" fill="#eda600"/><path d="m320 208 32-32 72 48-8 32-32-10.667-41.562-11.413z" fill="#de9400"/><path d="m286.146 230.146-70.146-70.146 24-24 73.143 64z" fill="#de9400"/><path d="m350.653 291.327 41.347 20.673 16-32-46.851-23.425z" fill="#de9400"/><path d="m258.057 217.371-50.057-33.371-24 32 64 40 32 40 34.068-22.712z" fill="#eda600"/><path d="m277.882 218.118 34.118-34.118 40 40 40 16v32h-39.902l-48.098-24z" fill="#f6bb00"/><path d="m24 431.99984v-85.57668a34.42114 34.42114 0 0 1 15.32819-28.64031 34.42275 34.42275 0 0 1 19.094-5.781h77.57781l87.78505 20.25761a69.23473 69.23473 0 0 0 32.35919-.29414 69.2346 69.2346 0 0 1 31.81024-.41847l186.81252 41.51282a16.89864 16.89864 0 0 1 13.233 16.49615 16.89849 16.89849 0 0 1 -9.34151 15.11452l-102.65849 51.32807h-70.11147a75.77848 75.77848 0 0 1 -33.88853-7.9998 75.77848 75.77848 0 0 0 -33.88851-7.9998h-7.68928a47.634 47.634 0 0 0 -26.41947 7.998l-.00274.0018a47.64485 47.64485 0 0 1 -26.42543 7.9998h-26.45333a43.82891 43.82891 0 0 1 -13.87614-2.25457l-.996-.33242a41.48333 41.48333 0 0 0 -31.89615 2.35166l-.47636.24158a73.999 73.999 0 0 1 -33.47259 7.99534c-4.4836-.00042-9.44449-.00074-14.40554-.001a31.99957 31.99957 0 0 1 -31.99846-31.99916z" fill="#b1712c"/><path d="m88 376.00049a24.02676 24.02676 0 0 1 -24-23.99949v-8h16v8a8 8 0 0 0 16 0v-8h16v8a24.02676 24.02676 0 0 1 -24 23.99949z" fill="#91591c"/><path d="m152 423.99951a24.02687 24.02687 0 0 1 -24-24v-7.99951h16v7.99951a8 8 0 0 0 16 0v-7.99951h16v7.99951a24.02687 24.02687 0 0 1 -24 24z" fill="#91591c"/><path d="m240 400a24.02676 24.02676 0 0 1 -24-23.99951v-8h16v8a8 8 0 0 0 16 0v-8h16v8a24.02676 24.02676 0 0 1 -24 23.99951z" fill="#91591c"/><path d="m328 431.999a24.02676 24.02676 0 0 1 -24-23.99951v-8h16v8a8 8 0 0 0 16 0v-8h16v8a24.02676 24.02676 0 0 1 -24 23.99951z" fill="#91591c"/><g fill="#a2ba18"><path d="m56 412.686h16v22.627h-16z" transform="matrix(.707 -.707 .707 .707 -281.071 169.447)"/><path d="m136 356.687h16v22.627h-16z" transform="matrix(.707 -.707 .707 .707 -218.039 209.608)"/><path d="m376 380.686h16v22.627h-16z" transform="matrix(.707 -.707 .707 .707 -164.715 386.351)"/><path d="m84.686 392h22.627v16h-22.627z" transform="matrix(.707 -.707 .707 .707 -254.725 185.039)"/><path d="m172.686 360.001h22.627v16h-22.627z" transform="matrix(.707 -.707 .707 .707 -206.323 237.893)"/><path d="m284.686 368h22.627v16h-22.627z" transform="matrix(.707 -.707 .707 .707 -179.176 319.432)"/><path d="m404.686 400h22.627v16h-22.627z" transform="matrix(.707 -.707 .707 .707 -166.656 413.657)"/></g><path d="m248 224 48 48 56 32 16-32-56-32-40-40z" fill="#fac623"/><path d="m157.25 261.25a63.98969 63.98969 0 0 1 -109.25-45.25v-.07007a63.77558 63.77558 0 0 1 18.75-45.17993l38.08008 38.08 13.76992 13.77z" fill="#b9cd2a"/><path d="m118.6 222.6-14.24 56.94a63.72189 63.72189 0 0 1 -15.5199-3.87012l12.56981-50.27988-51.42991 6.42006a64.0694 64.0694 0 0 1 -1.98-15.81006v-.07007l56.83008-7.1z" fill="#a2ba18"/><path d="m200 93.2v.06a61.3587 61.3587 0 0 1 -2.07007 15.80005 62.9321 62.9321 0 0 1 -17.61987 29.45 67.4723 67.4723 0 0 1 -23.55 14.54 69.97233 69.97233 0 0 1 -71.5-14.54l40.90991-38.96 14.13008-13.46005 40.01-38.09a62.30091 62.30091 0 0 1 19.68995 45.2z" fill="#b9cd2a"/><path d="m200 93.2v.06a61.3587 61.3587 0 0 1 -2.07007 15.80005l-54.41993-6.47005 13.25 50.46008a69.44378 69.44378 0 0 1 -15.58008 3.7l-15.01-57.19995 14.13013-13.46013z" fill="#a2ba18"/></svg>