<svg id="Flat" height="512" viewBox="0 0 512 512" width="512" xmlns="http://www.w3.org/2000/svg"><path d="m232 416h48v48h-48z" fill="#dadcde"/><path d="m310.618 424h-109.237a64 64 0 0 1 -58.362-37.737l-55.019-122.263h336l-55.019 122.263a64 64 0 0 1 -58.363 37.737z" fill="#e1e3e6"/><path d="m315.072 392h-118.144a32 32 0 0 1 -29.317-19.174l-47.611-108.826h272l-47.611 108.826a32 32 0 0 1 -29.317 19.174z" fill="#f7cca9"/><g fill="#d1ad8f"><circle cx="200" cy="376" r="8"/><circle cx="232" cy="360" r="8"/><circle cx="280" cy="376" r="8"/><circle cx="312" cy="360" r="8"/></g><path d="m136 40 64 224h32l-64-224z" fill="#5e3d30"/><path d="m72 40 64 224h32l-64-224z" fill="#5e3d30"/><path d="m320 456h-128a32 32 0 0 0 -32 32h192a32 32 0 0 0 -32-32z" fill="#e9eef2"/><circle cx="256" cy="152" fill="#f7cca9" r="64"/><circle cx="192" cy="264" fill="#ff9494" r="64"/><circle cx="320" cy="264" fill="#734b39" r="64"/><path d="m256 48a8 8 0 0 1 -8-8 8.009 8.009 0 0 0 -8-8h-8a8 8 0 0 1 0-16h8a24.028 24.028 0 0 1 24 24 8 8 0 0 1 -8 8z" fill="#cfdb8c"/><path d="m448 296c-32 0-32 32-64 32s-32-32-64-32-32 32-64 32-32-32-64-32-32 32-64 32-32-32-64-32v-16a16 16 0 0 1 16-16h352a16 16 0 0 1 16 16z" fill="#e9eef2"/><path d="m264 243.08v4.92a16 16 0 0 1 -16 16h-32a16 16 0 0 1 -16-16v-4.92a16.126 16.126 0 0 1 1.14-5.94l10.84-27.08a15.989 15.989 0 0 1 14.85-10.06h10.34a15.989 15.989 0 0 1 14.85 10.06l10.84 27.08a16.126 16.126 0 0 1 1.14 5.94z" fill="#eb423f"/><path d="m240 248v16h-16v-16a8 8 0 0 1 16 0z" fill="#a82a27"/><path d="m424 243.08v4.92a16 16 0 0 1 -16 16h-32a16 16 0 0 1 -16-16v-4.92a16.126 16.126 0 0 1 1.14-5.94l10.84-27.08a15.989 15.989 0 0 1 14.85-10.06h10.34a15.989 15.989 0 0 1 14.85 10.06l10.84 27.08a16.126 16.126 0 0 1 1.14 5.94z" fill="#eb423f"/><path d="m400 248v16h-16v-16a8 8 0 0 1 16 0z" fill="#a82a27"/><path d="m352 144h16a0 0 0 0 1 0 0v16a32 32 0 0 1 -32 32h-16a0 0 0 0 1 0 0v-16a32 32 0 0 1 32-32z" fill="#a0ab65" transform="matrix(-1 0 0 -1 688 336)"/><path d="m329.373 201.373-9.373-9.373 9.373-9.373a32 32 0 0 1 45.254 0l9.373 9.373-9.373 9.373a32 32 0 0 1 -45.254 0z" fill="#cfdb8c"/><circle cx="312" cy="248" fill="#cfdb8c" r="16"/><circle cx="152" cy="248" fill="#cfdb8c" r="16"/><circle cx="344" cy="248" fill="#cfdb8c" r="16"/><path d="m151.029 167.029h33.941v33.941h-33.941z" fill="#ffe76c" transform="matrix(.707 -.707 .707 .707 -80.902 172.686)"/><path d="m95.029 223.029h33.941v33.941h-33.941z" fill="#ffe76c" transform="matrix(.707 -.707 .707 .707 -136.902 149.49)"/><path d="m168 232h32v32h-32z" fill="#a0ab65"/><path d="m264 232h32v32h-32z" fill="#a0ab65"/><path d="m317.99 136h-13.99a15.979 15.979 0 0 0 -16 16 16 16 0 1 1 -32 0 16 16 0 1 0 -32 0 16 16 0 1 1 -32 0 64.013 64.013 0 0 1 125.99-16z" fill="#734b39"/><circle cx="256" cy="64" fill="#eb423f" r="24"/></svg>