<?xml version="1.0" encoding="iso-8859-1"?>
<!-- Generator: Adobe Illustrator 19.0.0, SVG Export Plug-In . SVG Version: 6.00 Build 0)  -->
<svg version="1.1" id="Capa_1" xmlns="http://www.w3.org/2000/svg" xmlns:xlink="http://www.w3.org/1999/xlink" x="0px" y="0px"
	 viewBox="0 0 512.001 512.001" style="enable-background:new 0 0 512.001 512.001;" xml:space="preserve">
<path style="fill:#64E4F9;" d="M311.315,205.382l17.209-134.405C331.508,47.694,351.46,30,374.934,30H400.5c8.284,0,15,6.716,15,15
	s-6.716,15-15,15h-25.566c-8.423,0-15.582,6.436-16.653,14.791l-17.209,134.337c-0.97,7.569-7.424,13.129-14.859,13.129
	c-0.635,0-1.278-0.024-1.926-0.107C316.069,221.097,310.262,213.6,311.315,205.382z"/>
<path style="fill:#FFD357;" d="M295.84,179.723l-90.901-90.901c-5.857-5.858-15.355-5.858-21.213,0s-5.858,15.355,0,21.213
	l90.901,90.901c2.929,2.929,6.768,4.394,10.606,4.394s7.678-1.464,10.606-4.394C301.698,195.078,301.698,185.581,295.84,179.723z"/>
<path style="fill:#E65E84;" d="M279.787,8.8c-2.398-5.437-7.78-8.8-13.724-8.8H164.44C127.166,0,96.5,30.034,96.5,67.309v116.337
	c0,6.191,3.974,11.747,9.747,13.985c1.765,0.684,3.686,1.015,5.506,1.015c4.135,0,8.225-1.712,11.124-4.887L277.12,24.895
	C281.128,20.506,282.188,14.238,279.787,8.8z"/>
<path style="fill:#FF7DA2;" d="M116.492,19.676C104.167,31.844,96.5,48.672,96.5,67.309v116.337c0,6.191,3.974,11.747,9.747,13.985
	c1.765,0.684,3.686,1.015,5.506,1.015c4.135,0,8.225-1.712,11.124-4.887l79.143-86.645L116.492,19.676z"/>
<path style="fill:#FFD357;" d="M378.061,153H184.342c-8.284,0-14.842,6.811-14.842,15.095v66.99c0,0.424-0.062,0.848-0.025,1.271
	l22.253,262.061c0.66,7.764,7.115,13.584,14.907,13.584H355.77c7.792,0,14.286-5.82,14.946-13.584l22.512-262.134
	c0.036-0.422,0.273-0.773,0.273-1.198v-66.99C393.5,159.811,386.345,153,378.061,153z"/>
<path style="fill:#E5E5E5;" d="M393.227,236.274c0.036-0.422,0.273-0.765,0.273-1.189v-66.99c0-8.284-7.155-15.095-15.439-15.095
	H184.342c-8.284,0-14.842,6.811-14.842,15.095v66.99c0,0.424-0.062,0.84-0.025,1.262L170.55,249h221.583L393.227,236.274z"/>
<path style="fill:#FFFF69;" d="M281.059,153h-96.716c-8.284,0-14.842,6.811-14.842,15.095v66.99c0,0.424-0.062,0.848-0.025,1.271
	l22.253,262.061c0.66,7.764,7.115,13.584,14.907,13.584h74.423V153z"/>
<path style="fill:#F7F7F7;" d="M281.059,153h-96.716c-8.284,0-14.842,6.811-14.842,15.095v66.99c0,0.424-0.062,0.84-0.025,1.262
	L170.55,249h110.508V153z"/>
<g>
</g>
<g>
</g>
<g>
</g>
<g>
</g>
<g>
</g>
<g>
</g>
<g>
</g>
<g>
</g>
<g>
</g>
<g>
</g>
<g>
</g>
<g>
</g>
<g>
</g>
<g>
</g>
<g>
</g>
</svg>
