<svg id="Capa_1" enable-background="new 0 0 512 512" height="512" viewBox="0 0 512 512" width="512" xmlns="http://www.w3.org/2000/svg"><g><g><g><g><path d="m490.613 452.878c-8.905-13.358-13.613-28.906-13.613-44.961 0-18.899 3.03-37.573 9.009-55.509l.291-.872c3.227-9.681 5.723-19.547 7.495-29.536l-38.816-75.703 8.355-74.297c-.45-.692-.897-1.386-1.356-2.074-16.341-24.512-24.978-53.039-24.978-82.497v-72.429h-90v72.429c0 29.458-8.637 57.985-24.979 82.497-.459.688-.906 1.382-1.355 2.074l4.554 71.132-35.014 78.868c1.771 9.988 4.267 19.853 7.493 29.531l.293.882c5.977 17.931 9.007 36.604 9.007 55.504 0 16.055-4.708 31.603-13.612 44.961-4.179 6.267-6.388 13.562-6.388 21.095.001 20.968 17.06 38.027 38.029 38.027h133.944c20.969 0 38.028-17.059 38.028-38.027 0-7.533-2.208-14.827-6.387-21.095z" fill="#8ee26b"/><g><path d="m490.613 452.878c-8.905-13.358-13.613-28.906-13.613-44.961 0-18.899 3.03-37.573 9.009-55.509l.291-.872c3.227-9.681 5.723-19.547 7.495-29.536l-101.795-24v214h66.972c20.969 0 38.028-17.059 38.028-38.027 0-7.533-2.208-14.827-6.387-21.095z" fill="#00a78e"/></g><g><path d="m461.978 169.926c-16.341-24.512-24.978-53.039-24.978-82.497v-72.429h-45v195l71.334-38c-.45-.692-.897-1.386-1.356-2.074z" fill="#00a78e"/></g><path d="m463.334 172h-142.668c-22.028 33.898-33.666 73.117-33.666 113.595 0 12.249 1.08 24.417 3.206 36.405h203.588c2.126-11.989 3.206-24.157 3.206-36.405 0-40.478-11.638-79.698-33.666-113.595z" fill="#f9f9f9"/><g><path d="m497 285.595c0-40.478-11.638-79.697-33.666-113.595h-71.334v150h101.794c2.126-11.989 3.206-24.157 3.206-36.405z" fill="#e2dff4"/></g></g><g><path d="m427 452c-8.284 0-15-6.716-15-15v-70c0-8.284 6.716-15 15-15s15 6.716 15 15v70c0 8.284-6.716 15-15 15z" fill="#007578"/></g><g><path d="m357 452c-8.284 0-15-6.716-15-15v-70c0-8.284 6.716-15 15-15s15 6.716 15 15v70c0 8.284-6.716 15-15 15z" fill="#00a78e"/></g><g><path d="m432 30h-80c-8.284 0-15-6.716-15-15s6.716-15 15-15h80c8.284 0 15 6.716 15 15s-6.716 15-15 15z" fill="#00a78e"/></g><g><path d="m432 0h-40v30h40c8.284 0 15-6.716 15-15s-6.716-15-15-15z" fill="#007578"/></g></g></g><g><g><g><path d="m218.613 452.878c-8.905-13.358-13.613-28.906-13.613-44.961 0-18.899 3.03-37.573 9.009-55.509l.291-.872c3.227-9.681 5.723-19.547 7.495-29.536l-38.816-75.703 8.355-74.297c-.45-.692-.897-1.386-1.356-2.074-16.341-24.512-24.978-53.039-24.978-82.497v-72.429h-90v72.429c0 29.458-8.637 57.985-24.979 82.497-.459.688-.906 1.382-1.355 2.074l4.554 71.132-35.014 78.868c1.771 9.988 4.267 19.853 7.493 29.531l.293.882c5.978 17.931 9.008 36.605 9.008 55.504 0 16.055-4.708 31.603-13.612 44.961-4.179 6.267-6.388 13.561-6.388 21.095 0 20.968 17.059 38.027 38.028 38.027h133.944c20.969 0 38.028-17.059 38.028-38.027 0-7.533-2.208-14.827-6.387-21.095z" fill="#af7a4a"/><g><path d="m218.613 452.878c-8.905-13.358-13.613-28.906-13.613-44.961 0-18.899 3.03-37.573 9.009-55.509l.291-.872c3.227-9.681 5.723-19.547 7.495-29.536l-101.795-24v214h66.972c20.969 0 38.028-17.059 38.028-38.027 0-7.533-2.208-14.827-6.387-21.095z" fill="#8e4f40"/></g><g><path d="m189.978 169.926c-16.341-24.512-24.978-53.039-24.978-82.497v-72.429h-45v195l71.334-38c-.45-.692-.897-1.386-1.356-2.074z" fill="#8e4f40"/></g><path d="m191.334 172h-142.668c-22.028 33.898-33.666 73.117-33.666 113.595 0 12.249 1.08 24.417 3.206 36.405h203.588c2.126-11.989 3.206-24.157 3.206-36.405 0-40.478-11.638-79.698-33.666-113.595z" fill="#f9f9f9"/><g><path d="m225 285.595c0-40.478-11.638-79.697-33.666-113.595h-71.334v150h101.794c2.126-11.989 3.206-24.157 3.206-36.405z" fill="#e2dff4"/></g></g><g><path d="m155 452c-8.284 0-15-6.716-15-15v-70c0-8.284 6.716-15 15-15s15 6.716 15 15v70c0 8.284-6.716 15-15 15z" fill="#5c3629"/></g><g><path d="m85 452c-8.284 0-15-6.716-15-15v-70c0-8.284 6.716-15 15-15s15 6.716 15 15v70c0 8.284-6.716 15-15 15z" fill="#8e4f40"/></g><g><path d="m160 30h-80c-8.284 0-15-6.716-15-15s6.716-15 15-15h80c8.284 0 15 6.716 15 15s-6.716 15-15 15z" fill="#8e4f40"/></g><g><path d="m160 0h-40v30h40c8.284 0 15-6.716 15-15s-6.716-15-15-15z" fill="#5c3629"/></g></g></g></g></svg>