<?xml version="1.0"?>
<svg xmlns="http://www.w3.org/2000/svg" xmlns:xlink="http://www.w3.org/1999/xlink" viewBox="0 0 512 512" width="512" height="512"><defs><linearGradient id="linear-gradient" x1="110.274" y1="447.168" x2="440.378" y2="117.064" gradientUnits="userSpaceOnUse"><stop offset="0" stop-color="#41dfd0"/><stop offset="1" stop-color="#ee83ef"/></linearGradient></defs><g id="gradient"><path d="M284,456h56a44.049,44.049,0,0,0,44-44s-.083-149.259-.225-149.855a146.929,146.929,0,0,0-13.042-53.066l-16.159-35.537A117.3,117.3,0,0,1,344,124.71V24a8,8,0,0,0-8-8H288a8,8,0,0,0-8,8V124.71a117.3,117.3,0,0,1-10.573,48.829l-16.159,35.539A147.338,147.338,0,0,0,241.7,248h-35.87l-3.456-32.837A8,8,0,0,0,194.42,208h-80a8,8,0,0,0-7.956,7.162l-10.14,96.311a58.38,58.38,0,0,0,50.1,63.955V420l-28.8,21.6a8,8,0,0,0,4.8,14.4h64a8,8,0,0,0,4.8-14.4L162.42,420V375.453c.128-.018.256-.03.384-.049a58.3,58.3,0,0,0,47.616,40.024V460l-28.8,21.6a8,8,0,0,0,4.8,14.4h64a8,8,0,0,0,4.8-14.4L226.42,460V415.428A58.384,58.384,0,0,0,240,411.844V412A44.049,44.049,0,0,0,284,456Zm84-88H320V272h48ZM328,32V96H296V64h16V48H296V32ZM267.833,215.7l16.161-35.543A133.2,133.2,0,0,0,296,124.71V112h32v12.71a133.213,133.213,0,0,0,12.007,55.452l16.16,35.538A131.156,131.156,0,0,1,367.229,256H312a8,8,0,0,0-8,8V376a8,8,0,0,0,8,8h56v28a28.032,28.032,0,0,1-28,28H284a28.032,28.032,0,0,1-28-28v-9.72a58.135,58.135,0,0,0,20.514-50.81l-10.138-96.307A8,8,0,0,0,258.42,248h-.494A131.387,131.387,0,0,1,267.833,215.7ZM181.318,304.89c0-.045.01-.089.014-.134L185.622,264h65.6l7.579,72H178.043ZM121.622,224h65.6l2.526,24H178.42a8,8,0,0,0-7.956,7.163L166.165,296H114.041ZM122.9,345.963a42.476,42.476,0,0,1-10.663-32.815l.121-1.148h52.124l-4.155,39.47a58.322,58.322,0,0,0-.265,8.147,42.906,42.906,0,0,1-5.641.383A42.477,42.477,0,0,1,122.9,345.963ZM146.42,440l8-6,8,6ZM186.9,385.964a42.482,42.482,0,0,1-10.659-32.819l.121-1.145h84.122l.121,1.145a42.415,42.415,0,0,1-73.7,32.819ZM210.42,480l8-6,8,6Zm11.223-101.015c.831-1.348,1.552-2.444,2.179-3.4,2.147-3.264,2.275-3.459,2.619-8.17a8,8,0,0,1,15.958,1.166c-.591,8.1-1.9,10.763-5.21,15.8-.554.843-1.192,1.811-1.927,3a8,8,0,1,1-13.619-8.4Zm22.775-51.029a8,8,0,0,1-8.793-7.119l-2.526-24a8,8,0,1,1,15.912-1.674l2.526,24A8,8,0,0,1,244.418,327.956Z" style="fill:url(#linear-gradient)"/></g></svg>
