<svg id="Layer_1" enable-background="new 0 0 512 512" height="512" viewBox="0 0 512 512" width="512" xmlns="http://www.w3.org/2000/svg"><g><g><g><g id="XMLID_1403_"><g id="XMLID_1404_"><g id="XMLID_1405_"><g id="XMLID_1406_"><g id="XMLID_1407_"><g id="XMLID_1408_"><g id="XMLID_1409_"><g id="XMLID_1410_"><g id="XMLID_1454_"><g id="XMLID_1455_"><g id="XMLID_1456_"><g id="XMLID_1457_"><g id="XMLID_1458_"><g id="XMLID_1459_"><g id="XMLID_1460_"><circle cx="256" cy="256" fill="#605553" r="256"/></g></g></g></g></g></g></g></g></g></g></g></g></g></g></g></g></g><path d="m512 256c0-13.896-1.123-27.527-3.254-40.822l-53.771-53.771-30.308-16.573-48.453-47.431-198.547 243.597-114.667 39.982 120.625 120.625c22.952 6.753 47.237 10.393 72.375 10.393 141.385 0 256-114.615 256-256z" fill="#4c403f"/><g><path d="m240.107 367.727-134.333 4.316 40.297 49.099h188.072l40.297-49.099z" fill="#d2ebff"/><path d="m374.44 372.047-7.334 8.937-32.96 40.162h-94.039v-53.421z" fill="#9eccf2"/><g><g><g><path d="m404.312 279.112h-40.78v-35.506h40.78c18.111 0 32.845-14.734 32.845-32.845v-3.523c0-18.111-14.734-32.845-32.845-32.845h-40.78v-35.506h40.78c37.689 0 68.351 30.662 68.351 68.351v3.523c0 37.688-30.662 68.351-68.351 68.351z" fill="#fbbe2c"/></g></g><path d="m104.001 97.402v162.157c0 20.221 7.491 39.725 21.028 54.746l30.784 34.162h168.588l30.784-34.162c13.536-15.021 21.028-34.525 21.028-54.746v-162.157z" fill="#ffe780"/><path d="m376.216 97.404v162.16c0 20.218-7.497 39.716-21.03 54.74l-19.822 21.993-10.966 12.173h-84.291v-251.066z" fill="#fed940"/><path d="m63 336.294h354.214v44.688h-354.214z" fill="#eef9ff"/><path d="m240.107 336.297h177.103v44.687h-177.103z" fill="#d2ebff"/></g></g></g></svg>