<svg id="Capa_1" enable-background="new 0 0 512 512" height="512" viewBox="0 0 512 512" width="512" xmlns="http://www.w3.org/2000/svg"><g><g><path d="m192.638 336.196c-5.329 14.39-15.315 25.695-27.625 32.844-2.717 1.578-6.243.271-7.276-2.696-4.676-13.439-4.889-28.521.44-42.911 5.326-14.38 15.311-25.684 27.613-32.836 2.716-1.579 6.243-.274 7.277 2.693 4.684 13.444 4.897 28.525-.429 42.906z" fill="#2db181"/></g><g><path d="m224.775 406.139c-5.329 14.39-15.315 25.695-27.625 32.844-2.717 1.578-6.243.271-7.276-2.696-4.676-13.439-4.889-28.521.44-42.911 5.326-14.38 15.311-25.684 27.613-32.836 2.716-1.579 6.243-.274 7.277 2.693 4.683 13.443 4.897 28.525-.429 42.906z" fill="#2db181"/></g><g><g><path d="m213.618 496.264c-2.883 0-5.639-1.645-6.921-4.436l-85.664-186.437c-1.755-3.82-.081-8.339 3.738-10.094 3.819-1.757 8.339-.081 10.094 3.738l85.664 186.437c1.755 3.82.081 8.339-3.738 10.094-1.03.474-2.11.698-3.173.698z" fill="#5bbd93"/></g></g><g><path d="m131.543 266.026c6.407 13.943 7.34 28.999 3.69 42.758-.805 3.037-4.223 4.606-7.051 3.238-12.81-6.196-23.625-16.711-30.031-30.653-6.403-13.935-7.335-28.988-3.693-42.744.804-3.037 4.221-4.608 7.05-3.241 12.816 6.193 23.632 16.707 30.035 30.642z" fill="#bcea73"/></g><g><g><path d="m111.598 373.432c14.39 5.329 29.472 5.116 42.915.433 2.967-1.034 4.272-4.56 2.693-7.277-7.151-12.302-18.456-22.288-32.845-27.617-14.38-5.326-29.461-5.113-42.901-.436-2.967 1.032-4.274 4.559-2.696 7.276 7.148 12.31 18.453 22.295 32.834 27.621z" fill="#bcea73"/></g></g><g><g><path d="m143.735 443.375c14.39 5.329 29.472 5.116 42.915.433 2.967-1.034 4.272-4.56 2.693-7.277-7.151-12.302-18.456-22.288-32.845-27.617-14.38-5.326-29.461-5.113-42.901-.436-2.967 1.032-4.274 4.559-2.696 7.276 7.148 12.309 18.453 22.295 32.834 27.621z" fill="#bcea73"/></g></g><g><g><g><g><circle cx="357.519" cy="475.205" fill="#fb4a59" r="36.791"/><path d="m394.307 475.201c0 20.324-16.465 36.799-36.789 36.799-5.803 0-11.294-1.34-16.173-3.737 16.201-3.85 28.25-18.418 28.25-35.798 0-14.512-8.407-27.07-20.626-33.053 2.746-.651 5.605-1 8.549-1 20.324 0 36.789 16.475 36.789 36.789z" fill="#f82f40"/></g></g><g><g><circle cx="416.113" cy="484.228" fill="#fb4a59" r="27.767"/><path d="m443.878 484.225c0 15.339-12.427 27.773-27.766 27.773-4.38 0-8.524-1.011-12.206-2.82 12.227-2.905 21.321-13.901 21.321-27.018 0-10.952-6.345-20.431-15.567-24.946 2.072-.491 4.23-.755 6.452-.755 15.34 0 27.766 12.434 27.766 27.766z" fill="#f82f40"/></g></g><g><g><g><g><g><g><g><g><path d="m256 444.14c-4.204 0-7.611-3.408-7.611-7.611v-199.17c0-4.204 3.408-7.611 7.611-7.611 4.204 0 7.611 3.408 7.611 7.611v199.17c0 4.203-3.407 7.611-7.611 7.611z" fill="#bdecf9"/></g><path d="m348.336 497.672-.069-.024c-26.581-9.205-50.425-24.939-69.342-45.757l-15.414-16.963c-4.027-4.431-10.995-4.431-15.022 0l-15.414 16.963c-18.918 20.819-42.761 36.552-69.342 45.757l-.069.024c-7.851 2.719-5.897 14.328 2.411 14.328h179.851c8.307 0 10.261-11.61 2.41-14.328z" fill="#f1faff"/><path d="m345.923 512h-22.541c-.355-.185-.739-.341-1.137-.483l-.071-.028c-26.592-9.196-50.426-24.929-69.343-45.75l-16.174-17.794 11.832-13.015c4.027-4.43 10.994-4.429 15.02.002l15.416 16.964c18.917 20.807 42.766 36.555 69.343 45.75l.071.028c7.845 2.714 5.898 14.326-2.416 14.326z" fill="#c9f0fd"/></g></g></g></g><path d="m445.678 35.309h-379.356c-6.475 0-11.722 5.247-11.722 11.722v80.722h402.799v-80.722c0-6.475-5.246-11.722-11.721-11.722z" fill="#f1faff"/><path d="m245.111 127.753h-88.932l-9.651-26.021c-1.573-4.242.589-8.961 4.831-10.534l62.8-23.301c4.242-1.573 8.961.589 10.534 4.831z" fill="#c9f0fd"/><path d="m245.111 127.753h-28.964l-16.908-45.577c-1.583-4.252-6.292-6.404-10.534-4.831l25.453-9.448c4.242-1.573 8.961.589 10.534 4.831z" fill="#9ce6fb"/><path d="m457.399 47.031v80.722h-30.73v-80.722c0-6.475-5.247-11.722-11.722-11.722h30.73c6.476 0 11.722 5.247 11.722 11.722z" fill="#c9f0fd"/><path d="m249.483 246.561c3.748 3.194 9.291 3.194 13.039 0 14.67-12.503 32.372-21.026 51.403-24.666l74.616-14.272 16.421-3.136c30.436-5.815 52.438-32.435 52.438-63.419v-23.464h-402.799v23.464c0 30.984 22.002 57.604 52.438 63.419l91.036 17.41c19.031 3.639 36.737 12.161 51.408 24.664z" fill="#bcea73"/><g><path d="m243.154 146.062-62.8 23.301c-4.242 1.573-8.951-.589-10.524-4.831l-17.415-46.927h88.922l6.647 17.923c1.584 4.242-.588 8.961-4.83 10.534z" fill="#dbf2b4"/><path d="m243.154 146.062-25.453 9.438c4.252-1.573 6.414-6.282 4.831-10.524l-10.159-27.371h28.964l6.647 17.923c1.584 4.252-.588 8.961-4.83 10.534z" fill="#b6d86c"/></g><path d="m457.399 117.604v23.464c0 30.984-22.002 57.604-52.438 63.419l-16.421 3.136c22.784-10.21 38.128-33.044 38.128-58.913v-31.106z" fill="#99d53b"/><g><path d="m314.816 89.744c-.007 0-.013 0-.02 0-4.196-.011-7.592-3.405-7.592-7.602 0-.608.076-15.08 6.723-32.255 8.893-22.978 25.369-40.026 47.647-49.301 3.879-1.616 8.337.221 9.952 4.101 1.616 3.881-.22 8.337-4.101 9.952-44.236 18.416-44.988 65.526-44.998 67.522-.022 4.19-3.425 7.583-7.611 7.583z" fill="#fb9927"/></g><path d="m357.121 117.604c0 3.511-.457 6.911-1.319 10.149h-76.5c-.863-3.237-1.319-6.637-1.319-10.149 0-21.85 17.72-39.569 39.57-39.569 21.859 0 39.568 17.719 39.568 39.569z" fill="#fb6672"/><path d="m357.121 117.604c0 3.511-.457 6.911-1.319 10.149h-27.472c1.431-4.1 2.212-8.505 2.212-13.092 0-15.609-9.042-29.116-22.185-35.551 2.953-.7 6.028-1.076 9.195-1.076 21.86.001 39.569 17.72 39.569 39.57z" fill="#fb4a59"/><path d="m357.123 117.608c0 21.855-17.717 39.571-39.571 39.571-21.855 0-39.571-17.717-39.571-39.571z" fill="#fb4a59"/><path d="m357.121 117.604c0 21.86-17.709 39.58-39.569 39.58-6.241 0-12.148-1.441-17.395-4.019 16.502-3.917 29.005-18.186 30.263-35.561z" fill="#f82f40"/></g><g><g id="XMLID_215_"><path d="m260.023 182.581c-4.049 0-7.417-3.189-7.598-7.274-.186-4.199 3.067-7.755 7.267-7.941l.301-.013c4.177-.184 7.755 3.066 7.941 7.267.186 4.199-3.067 7.755-7.267 7.941l-.301.013c-.114.005-.229.007-.343.007z" fill="#99d53b"/></g><g id="XMLID_83_"><path d="m288.404 197.718c-4.054 0-7.424-3.197-7.599-7.286-.179-4.2 3.079-7.75 7.279-7.93l.301-.013c4.202-.193 7.75 3.079 7.93 7.279.179 4.2-3.079 7.75-7.279 7.93l-.301.013c-.111.005-.221.007-.331.007z" fill="#dbf2b4"/></g><g id="XMLID_223_"><path d="m126.026 162.198c-4.054 0-7.424-3.197-7.599-7.286-.179-4.2 3.079-7.75 7.279-7.93l.301-.013c4.202-.189 7.75 3.08 7.93 7.279.179 4.2-3.079 7.75-7.279 7.93l-.301.013c-.111.005-.221.007-.331.007z" fill="#99d53b"/></g></g></g></g><g><g><g><path d="m94.768 497.516c-5.883 0-13.359-.45-22.672-1.755-4.163-.583-7.065-4.431-6.482-8.594s4.425-7.071 8.594-6.482c23.774 3.33 33.191.47 33.272.439 3.92-1.517 8.329.433 9.845 4.353s-.433 8.328-4.353 9.845c-.804.311-6.175 2.194-18.204 2.194z" fill="#fb9927"/></g><circle cx="135.118" cy="475.204" fill="#fb4a59" r="36.792"/><path d="m171.908 475.2c0 20.325-16.466 36.8-36.79 36.8-5.803 0-11.295-1.34-16.173-3.737 16.201-3.85 28.251-18.419 28.251-35.799 0-14.512-8.407-27.071-20.627-33.054 2.746-.651 5.605-1 8.549-1 20.324 0 36.79 16.475 36.79 36.79z" fill="#f82f40"/></g></g></g><g><path d="m357.525 458.993c-.146 0-.293-.004-.441-.012-4.194-.24-7.401-3.828-7.165-8.022.09-1.605 2.435-39.486 22.262-56.883 3.16-2.771 7.969-2.458 10.741.702 2.773 3.16 2.458 7.969-.702 10.741-12.458 10.931-16.57 37.129-17.103 46.301-.234 4.045-3.589 7.173-7.592 7.173z" fill="#fb9927"/></g></g></g></svg>