<svg id="Capa_1" enable-background="new 0 0 511.996 511.996" height="512" viewBox="0 0 511.996 511.996" width="512" xmlns="http://www.w3.org/2000/svg"><g><g><path clip-rule="evenodd" d="m255.998 53.09c-66.383 0-165.607 87.829-165.607 271.52 0 83.554 30.968 129.314 128.076 138.101v-80.42c0-20.749 16.803-37.568 37.531-37.568 20.728 0 37.531 16.82 37.531 37.568v80.446c97.947-8.723 128.076-54.491 128.076-138.127 0-183.691-95.103-271.52-165.607-271.52zm0 291.219c-30.741 0-55.662-24.921-55.662-55.662s24.921-55.662 55.662-55.662 55.662 24.921 55.662 55.662-24.921 55.662-55.662 55.662z" fill="#ffbdbc" fill-rule="evenodd"/></g><g><path d="m453.079 181.483c-13.687-40.117-31.75-68.711-44.147-86.729-19.851-28.854-42.993-51.833-68.784-68.298-27.109-17.308-56.208-26.456-84.15-26.456-53.33 0-109.84 35.302-151.167 94.434-12.729 18.212-31.275 47.073-45.323 87.26-14.707 42.076-22.165 90.16-22.165 142.916 0 29.997 3.463 55.354 10.588 77.523 8.572 26.673 22.713 49.103 42.028 66.666 23.348 21.231 53.313 35.094 91.608 42.381 11.631 2.213 23.522-.839 32.626-8.375 9.071-7.507 14.273-18.57 14.273-30.352v-90.163c0-15.201 12.351-27.568 27.531-27.568s27.531 12.367 27.531 27.569v90.231c0 11.794 5.204 22.881 14.277 30.417 7.114 5.909 15.937 9.057 24.982 9.057 2.391 0 4.797-.22 7.191-.667 38.865-7.256 69.15-21.199 92.586-42.627 46.688-42.688 52.087-102.68 52.087-144.092.002-53.014-7.257-101.169-21.572-143.127zm-242.743 107.164c0-25.178 20.484-45.662 45.662-45.662s45.662 20.484 45.662 45.662c0 23.953-18.543 43.643-42.026 45.504-2.437.032-4.874.031-7.311-.003-23.465-1.879-41.987-21.561-41.987-45.501zm198.734 165.294c-20.602 18.836-47.672 31.177-82.761 37.728-5.589 1.043-11.319-.457-15.724-4.115-4.483-3.724-7.055-9.203-7.055-15.031v-90.231c0-11.469-4.077-22.003-10.856-30.227 35.272-4.51 69.55-15.495 100.711-32.427 4.853-2.637 6.649-8.708 4.012-13.561s-8.709-6.649-13.561-4.012c-24.026 13.055-49.825 22.121-76.314 27.215 8.841-11.187 14.139-25.298 14.139-40.631 0-11.484-2.972-22.283-8.174-31.684 22.969-6.888 44.236-17.771 63.349-32.467 4.378-3.367 5.198-9.645 1.832-14.023s-9.645-5.198-14.023-1.832c-19.298 14.839-41.042 25.353-64.658 31.303-9.308-8.415-21.029-14.209-33.988-16.198v-47.653c22.884-2.086 45.245-11.413 63.46-27.958 4.088-3.713 4.392-10.038.679-14.126-3.713-4.087-10.037-4.392-14.126-.679-14.396 13.076-31.959 20.611-50.013 22.63v-66.813c0-5.523-4.477-10-10-10s-10 4.477-10 10v66.792c-17.654-2.012-34.841-9.302-49.06-21.924-4.129-3.666-10.45-3.292-14.117.84-3.667 4.13-3.291 10.451.84 14.117 18.019 15.997 39.926 25.016 62.337 27.096v47.676c-12.942 1.986-24.647 7.768-33.949 16.164-23.416-5.919-44.992-16.336-64.175-31.014-4.386-3.356-10.662-2.521-14.019 1.865-3.356 4.386-2.521 10.663 1.865 14.019 18.981 14.524 40.067 25.291 62.818 32.133-5.22 9.413-8.203 20.23-8.203 31.735 0 15.313 5.284 29.407 14.104 40.587-26.478-5.116-52.264-14.201-76.273-27.271-4.849-2.642-10.924-.85-13.564 4.001-2.641 4.851-.849 10.923 4.001 13.564 31.165 16.966 65.45 27.979 100.736 32.513-6.79 8.227-10.874 18.769-10.874 30.249v90.163c0 5.802-2.561 11.25-7.025 14.944-4.499 3.723-10.379 5.23-16.136 4.135-34.564-6.577-61.352-18.854-81.891-37.531-16.693-15.179-28.955-34.689-36.442-57.988-6.479-20.16-9.629-43.517-9.629-71.403 0-112.844 34.14-176.163 63.882-218.719 37.587-53.784 87.97-85.892 134.773-85.892 24.122 0 49.499 8.062 73.387 23.313 23.524 15.019 44.744 36.14 63.07 62.777 28.958 42.09 62.197 104.965 62.197 218.52.001 37.628-4.725 91.973-45.582 129.331z" fill="#020288"/></g></g></svg>