<svg id="Capa_1" enable-background="new 0 0 512 512" height="512" viewBox="0 0 512 512" width="512" xmlns="http://www.w3.org/2000/svg"><g><g><path d="m206.38 261h-100.76c-35.632 0-64.62-28.988-64.62-64.62 0-8.971 1.823-17.686 5.418-25.901l53.815-123.007c9.694-22.156 31.583-36.472 55.767-36.472s46.073 14.316 55.767 36.472l53.815 123.006c3.595 8.216 5.418 16.931 5.418 25.901 0 35.632-28.988 64.621-64.62 64.621z" fill="#ff4169"/><path d="m206.38 261c35.632 0 64.62-28.989 64.62-64.621 0-8.971-1.823-17.686-5.418-25.901l-53.815-123.006c-9.694-22.156-31.583-36.472-55.767-36.472v250z" fill="#cf3160"/><circle cx="186" cy="169.399" fill="#ff9d21" r="15"/><circle cx="126" cy="169.399" fill="#ffde46" r="15"/><circle cx="156" cy="112" fill="#ffde46" r="15"/><path d="m171 112c0-8.284-6.716-15-15-15v30c8.284 0 15-6.716 15-15z" fill="#ff9d21"/></g><g><path d="m406.38 261h-100.76c-35.632 0-64.62-28.988-64.62-64.62 0-8.971 1.823-17.686 5.418-25.901l53.815-123.007c9.694-22.156 31.583-36.472 55.767-36.472s46.073 14.316 55.767 36.472l53.815 123.006c3.595 8.216 5.418 16.931 5.418 25.901 0 35.632-28.988 64.621-64.62 64.621z" fill="#ff4169"/><path d="m406.38 261c35.632 0 64.62-28.989 64.62-64.621 0-8.971-1.823-17.686-5.418-25.901l-53.815-123.006c-9.694-22.156-31.583-36.472-55.767-36.472v250z" fill="#cf3160"/><circle cx="386" cy="169.399" fill="#ff9d21" r="15"/><circle cx="326" cy="169.399" fill="#ffde46" r="15"/><circle cx="356" cy="112" fill="#ffde46" r="15"/><path d="m371 112c0-8.284-6.716-15-15-15v30c8.284 0 15-6.716 15-15z" fill="#ff9d21"/></g><path d="m476 321h-440c-8.284 0-15-6.716-15-15v-20c0-30.327 24.673-55 55-55h360c30.327 0 55 24.673 55 55v20c0 8.284-6.716 15-15 15z" fill="#f5f0eb"/><path d="m436 231h-180v90h220c8.284 0 15-6.716 15-15v-20c0-30.327-24.673-55-55-55z" fill="#ebe1dc"/><path d="m433.112 501h-354.224c-26.886 0-49.831-19.438-54.251-45.958l-24.429-146.576c-1.524-9.143 5.527-17.466 14.795-17.466h481.993c9.269 0 16.319 8.323 14.796 17.466l-24.429 146.576c-4.42 26.52-27.365 45.958-54.251 45.958z" fill="#ffde46"/><path d="m83.531 291 23.333 210h74.568l-11.666-210z" fill="#ff9d21"/><path d="m428.469 291-23.333 210h-74.568l11.666-210z" fill="#ff7038"/><path d="m256 291v210h74.568l11.666-210z" fill="#ff9d21"/><path d="m256 291v210h-74.568l-11.666-210z" fill="#ffde46"/><path d="m428.469 291-23.333 210h27.977c26.886 0 49.831-19.438 54.251-45.958l24.429-146.576c1.524-9.143-5.527-17.466-14.796-17.466z" fill="#ff9d21"/></g></svg>