<svg id="Capa_1" enable-background="new 0 0 512 512" height="512" viewBox="0 0 512 512" width="512" xmlns="http://www.w3.org/2000/svg"><g><g><ellipse cx="349.637" cy="118.192" fill="#c53232" rx="106.522" ry="106.522" transform="matrix(.358 -.934 .934 .358 114.029 402.277)"/><path d="m349.637 174.359c-30.97 0-56.167-25.196-56.167-56.167s25.197-56.167 56.167-56.167c30.971 0 56.168 25.196 56.168 56.167s-25.197 56.167-56.168 56.167z" fill="#dd4e4e"/></g><g><path d="m210.022 134.604c-7.43-8.224-17.059-13.112-27.106-14.668-9.76-1.511-17.158-9.389-18.763-19.134-1.509-9.159-5.795-17.949-12.86-25.013-12.664-12.664-30.87-16.4-46.808-11.215-8.471 2.756-17.856.098-23.699-6.626-.709-.816-1.451-1.612-2.227-2.388-17.971-17.972-47.109-17.972-65.081 0s-17.971 47.109 0 65.081c.776.776 1.572 1.518 2.388 2.227 6.723 5.843 9.382 15.229 6.626 23.699-5.185 15.938-1.449 34.144 11.215 46.808 7.065 7.065 15.855 11.351 25.013 12.86 9.745 1.606 17.623 9.003 19.134 18.763 1.556 10.047 6.444 19.676 14.668 27.106 10.965 9.907 25.737 13.576 39.514 10.959 26.476-5.028 53.465-6.819 80.24-3.759l5.585.638-.638-5.585c-3.06-26.775-1.269-53.764 3.759-80.24 2.616-13.775-1.053-28.547-10.96-39.513z" fill="#e1fd9f"/><path d="m99.79 120.659-10.606 10.606-10.607 10.607 137.154 137.154 10.606-10.607 10.607-10.606z" fill="#a5e887"/></g><g><path d="m301.978 238.182c7.43-8.224 17.059-13.112 27.106-14.668 9.76-1.511 17.158-9.389 18.763-19.134 1.509-9.159 5.795-17.949 12.86-25.013 12.664-12.664 30.87-16.4 46.808-11.215 8.471 2.756 17.856.098 23.699-6.626.709-.816 1.451-1.612 2.227-2.388 17.971-17.972 47.109-17.972 65.081 0s17.971 47.109 0 65.081c-.776.776-1.572 1.518-2.388 2.227-6.723 5.843-9.382 15.229-6.626 23.699 5.185 15.938 1.449 34.144-11.215 46.808-7.065 7.065-15.855 11.351-25.013 12.86-9.745 1.606-17.623 9.003-19.134 18.763-1.556 10.047-6.444 19.676-14.668 27.106-10.965 9.907-25.737 13.576-39.514 10.959-26.476-5.028-53.465-6.819-80.24-3.759l-5.585.638.638-5.585c3.06-26.775 1.269-53.764-3.759-80.24-2.616-13.775 1.053-28.547 10.96-39.513z" fill="#a5e887"/><path d="m412.21 224.237 10.606 10.607 10.607 10.606-137.154 137.154-10.606-10.606-10.607-10.607z" fill="#e1fd9f"/></g><g><g><ellipse cx="121.866" cy="307.369" fill="#dd4e4e" rx="106.522" ry="106.522" transform="matrix(.358 -.934 .934 .358 -208.76 311.026)"/><path d="m121.865 363.536c-30.97 0-56.167-25.196-56.167-56.167s25.197-56.167 56.167-56.167c30.971 0 56.168 25.196 56.168 56.167s-25.197 56.167-56.168 56.167z" fill="#e38651"/></g><g><g><path d="m209.981 77.471c0 1.097.038 2.185.114 3.263.623 8.886-4.135 17.402-12.073 21.443-14.936 7.603-25.168 23.119-25.168 41.028 0 9.991 3.185 19.237 8.594 26.78 5.755 8.026 6.095 18.827.262 26.797-6.004 8.204-9.356 18.47-8.795 29.538.748 14.759 8.6 27.799 20.191 35.69 22.277 15.166 42.627 32.984 59.396 54.081l3.498 4.4 32.342-144.52-32.342-144.519c-25.416 0-46.019 20.603-46.019 46.019z" fill="#a5e887"/><g><path d="m330.552 169.985c5.409-7.543 8.594-16.789 8.594-26.78 0-17.909-10.232-33.425-25.168-41.028-7.938-4.041-12.695-12.557-12.073-21.443.076-1.078.114-2.166.114-3.263 0-25.416-20.603-46.019-46.019-46.019v289.04l3.498-4.4c16.769-21.097 37.119-38.914 59.396-54.081 11.592-7.892 19.443-20.931 20.191-35.69.561-11.069-2.791-21.335-8.795-29.538-5.833-7.971-5.494-18.772.262-26.798z" fill="#00cc76"/></g></g><g><path d="m241 138.514v193.965h15l5.544-41.615-5.544-152.35z" fill="#e1fd9f"/><path d="m256 138.514h15v193.965h-15z" fill="#a5e887"/></g><path d="m0 327.411v69.707l278.95 36.159-22.95-105.866z" fill="#cde1e6"/><path d="m256 327.411v105.866l256-36.159v-69.707z" fill="#b4d2d7"/></g></g><path d="m0 397.118v11.996c0 50.377 40.839 91.216 91.216 91.216h164.784l22.95-53.873-22.95-49.339z" fill="#e1ebf0"/><path d="m256 397.118v103.212h164.784c50.377 0 91.216-40.839 91.216-91.216v-11.996z" fill="#cde1e6"/></g></svg>