<?xml version="1.0" encoding="iso-8859-1"?>
<!-- Generator: Adobe Illustrator 19.0.0, SVG Export Plug-In . SVG Version: 6.00 Build 0)  -->
<svg version="1.1" id="Capa_1" xmlns="http://www.w3.org/2000/svg" xmlns:xlink="http://www.w3.org/1999/xlink" x="0px" y="0px"
	 viewBox="0 0 511.999 511.999" style="enable-background:new 0 0 511.999 511.999;" xml:space="preserve">
<path style="fill:#B7A29A;" d="M342.373,125.825c-2.635-2.22-4.381-5.341-4.728-8.769c-1.838-18.152-9.698-35.808-23.605-49.714
	c-26.997-26.997-42.257-42.923-53.619-64.653c-1.874-3.585-6.97-3.585-8.844,0c-11.362,21.73-26.622,37.656-53.619,64.653
	c-13.906,13.906-21.766,31.562-23.605,49.713c-0.348,3.432-2.097,6.554-4.735,8.776c-28.689,24.176-47.102,60.157-47.734,100.46
	c-1.159,73.806,58.392,79.864,132.2,80.893c74.956,1.046,136.047-4.03,136.047-78.746
	C390.131,187.264,371.574,150.429,342.373,125.825z"/>
<path style="fill:#FFF4D1;" d="M342.373,125.825c-2.635-2.22-4.381-5.341-4.728-8.769c-1.838-18.152-9.698-35.808-23.605-49.714
	c-26.997-26.997-42.257-42.923-53.619-64.653c-1.874-3.585-6.97-3.585-8.844,0c-11.362,21.73-26.622,37.656-53.619,64.653
	c-13.906,13.906-21.766,31.562-23.605,49.713c-0.348,3.432-2.097,6.554-4.735,8.776c-28.689,24.176-47.102,60.157-47.734,100.46
	c-1.159,73.806,58.392,79.864,132.2,80.893c74.956,1.046,136.047-4.03,136.047-78.746
	C390.131,187.264,371.574,150.429,342.373,125.825z"/>
<g>
	<ellipse style="fill:#F895C6;" cx="188.269" cy="216.559" rx="24.992" ry="19.903"/>
	<ellipse style="fill:#F895C6;" cx="323.729" cy="216.559" rx="24.992" ry="19.903"/>
</g>
<g>
	<path style="fill:#495059;" d="M202.831,204.208c-4.143,0-7.5-3.358-7.5-7.5v-8.826c0-4.142,3.357-7.5,7.5-7.5s7.5,3.358,7.5,7.5
		v8.826C210.331,200.85,206.974,204.208,202.831,204.208z"/>
	<path style="fill:#495059;" d="M309.167,204.208c-4.143,0-7.5-3.358-7.5-7.5v-8.826c0-4.142,3.357-7.5,7.5-7.5
		c4.142,0,7.5,3.358,7.5,7.5v8.826C316.667,200.85,313.31,204.208,309.167,204.208z"/>
	<path style="fill:#495059;" d="M255.999,210.985c-7.54,0-14.711-3.266-19.672-8.959c-2.722-3.123-2.395-7.86,0.727-10.582
		c3.124-2.721,7.859-2.397,10.582,0.727c2.112,2.423,5.16,3.813,8.363,3.813c3.203,0,6.251-1.39,8.363-3.813
		c2.72-3.124,7.457-3.448,10.582-0.727c3.122,2.721,3.448,7.459,0.727,10.582C270.71,207.719,263.539,210.985,255.999,210.985z"/>
</g>
<path style="opacity:0.2;fill:#AC6A22;enable-background:new    ;" d="M255.999,286.261
	c-120.57-41.654-79.808-127.882-58.002-156.259c2.558-3.329,3.904-7.415,3.796-11.612c-0.686-26.613,46.18-65.712,51.505-117.591
	c-0.69,0.445-1.292,1.068-1.721,1.889c-11.362,21.73-26.622,37.657-53.619,64.654c-13.906,13.906-21.766,31.562-23.605,49.713
	c-0.347,3.432-2.097,6.553-4.735,8.776c-28.689,24.176-47.102,60.157-47.734,100.46c-1.159,73.806,58.392,79.864,132.2,80.893
	c20.438,0.285,39.84,0.111,57.259-1.802C296.169,300.139,277.937,293.84,255.999,286.261z"/>
<path style="fill:#D39852;" d="M311.45,511.999H200.548c-12.676,0-23.322-9.538-24.71-22.138L162.529,369.03h186.94L336.16,489.861
	C334.772,502.461,324.126,511.999,311.45,511.999z"/>
<path style="opacity:0.2;fill:#AC6A22;enable-background:new    ;" d="M175.838,489.861c1.388,12.6,12.034,22.138,24.71,22.138
	h55.451c-17.438-22.232-27.673-60.604-32.716-90.186c-2.279-13.369,8.084-25.555,21.646-25.555H346.47l2.999-27.229H162.53
	L175.838,489.861z"/>
<path style="fill:#F3BB62;" d="M377.58,281.369H134.418c-10.766,0-18.669,10.111-16.07,20.558l13.289,53.418
	c2,8.04,9.22,13.684,17.506,13.684h213.713c8.286,0,15.506-5.644,17.506-13.684l13.289-53.418
	C396.25,291.48,388.346,281.369,377.58,281.369z"/>
<path style="opacity:0.2;fill:#AC6A22;enable-background:new    ;" d="M134.418,281.369c-10.766,0-18.67,10.111-16.071,20.558
	l13.289,53.418c2,8.04,9.221,13.684,17.506,13.684h117.823c-36.052-17.5-47.325-64.493-41.073-87.661h-91.474V281.369z"/>
<path style="fill:#F3BB62;" d="M344.246,460.943H167.752c-8.255,0-14.948-6.693-14.948-14.948s6.693-14.948,14.948-14.948h176.494
	c8.255,0,14.948,6.693,14.948,14.948S352.501,460.943,344.246,460.943z"/>
<g>
	<path style="fill:#D76976;" d="M311.343,106.731c-3.554,0-7.106-1.355-9.818-4.067c-5.423-5.423-5.423-14.215,0-19.637
		l24.062-24.061c5.423-5.422,14.214-5.422,19.637,0c5.423,5.423,5.423,14.215,0,19.637l-24.062,24.061
		C318.45,105.375,314.895,106.731,311.343,106.731z"/>
	<path style="fill:#D76976;" d="M143.705,166.14c-6.055,0-11.621-3.992-13.353-10.106c-2.089-7.379,2.199-15.054,9.578-17.143
		l34.123-9.661c7.38-2.086,15.054,2.198,17.143,9.578c2.089,7.379-2.199,15.054-9.578,17.143l-34.123,9.661
		C146.231,165.969,144.958,166.14,143.705,166.14z"/>
</g>
<g>
	<path style="fill:#98D2E6;" d="M230.05,75.263c-0.964,0-1.942-0.101-2.922-0.311l-27.204-5.826
		c-7.498-1.606-12.275-8.986-10.669-16.485c1.607-7.5,8.991-12.275,16.486-10.669l27.204,5.826
		c7.498,1.606,12.276,8.986,10.669,16.485C242.217,70.801,236.457,75.263,230.05,75.263z"/>
	<path style="fill:#98D2E6;" d="M262.653,150.376c-3.687,0-7.366-1.459-10.097-4.351l-13.49-14.284
		c-5.266-5.575-5.014-14.364,0.561-19.629c5.576-5.266,14.363-5.015,19.629,0.561l13.49,14.284
		c5.266,5.575,5.014,14.364-0.561,19.629C269.501,149.12,266.075,150.376,262.653,150.376z"/>
	<path style="fill:#98D2E6;" d="M374.969,180.371c-2.043,0-4.117-0.452-6.076-1.408l-25.51-12.438
		c-6.893-3.361-9.755-11.673-6.395-18.566c3.361-6.894,11.677-9.755,18.566-6.396l25.51,12.438
		c6.893,3.361,9.755,11.673,6.395,18.566C385.054,177.502,380.111,180.371,374.969,180.371z"/>
</g>
<path style="opacity:0.15;fill:#893529;enable-background:new    ;" d="M153.973,134.915l-14.043,3.976
	c-7.379,2.089-11.667,9.764-9.577,17.143c1.731,6.114,7.297,10.106,13.353,10.106c1.253,0,2.525-0.171,3.79-0.529l34.123-9.661
	C162.781,156.874,152.918,142.452,153.973,134.915z"/>
<g>
	<path style="opacity:0.15;fill:#003A63;enable-background:new    ;" d="M205.74,41.971c-7.495-1.606-14.879,3.17-16.485,10.67
		c-1.607,7.499,3.171,14.879,10.669,16.485l19.406,4.156c-10.848-9.685-12.109-24.219-7.693-30.048L205.74,41.971z"/>
	<path style="opacity:0.15;fill:#003A63;enable-background:new    ;" d="M368.893,178.964c1.959,0.955,4.033,1.408,6.076,1.408
		c2.013,0,3.994-0.446,5.806-1.277c-17.112-6.179-34.346-27.902-33.014-38.821c-4.499,0.563-8.637,3.306-10.773,7.687
		c-3.361,6.893-0.498,15.205,6.395,18.566L368.893,178.964z"/>
</g>
<path style="opacity:0.15;fill:#893529;enable-background:new    ;" d="M306.336,78.216l-4.811,4.811
	c-5.423,5.422-5.423,14.214,0,19.637c2.712,2.711,6.265,4.067,9.819,4.067c3.553,0,7.107-1.356,9.818-4.067l18.377-18.377
	C325.342,90.322,307.567,84.54,306.336,78.216z"/>
<path style="opacity:0.15;fill:#003A63;enable-background:new    ;" d="M262.653,150.376c3.422,0,6.848-1.256,9.532-3.791
	c0.144-0.136,0.269-0.284,0.406-0.424c-19.504-5.612-29.206-26.066-29.533-36.431c-1.227,0.601-2.386,1.394-3.432,2.382
	c-5.575,5.265-5.826,14.054-0.561,19.629l13.49,14.284C255.287,148.917,258.966,150.376,262.653,150.376z"/>
<g>
</g>
<g>
</g>
<g>
</g>
<g>
</g>
<g>
</g>
<g>
</g>
<g>
</g>
<g>
</g>
<g>
</g>
<g>
</g>
<g>
</g>
<g>
</g>
<g>
</g>
<g>
</g>
<g>
</g>
</svg>
