<svg height="512" viewBox="0 0 56 60" width="512" xmlns="http://www.w3.org/2000/svg"><g id="020---Wine" fill="none"><g id="Icons" transform="translate(1 1)"><path id="Shape" d="m53.79 20.58c-.12-.53-.22-1-.34-1.58h-12.72c.45 2.08 1.87 9 1.94 9 .2950318.9365564.3837315 1.9258993.26 2.9l.07.1c7 .57 12-5.28 10.79-10.42z" fill="#f44335"/><path id="Shape" d="m51.7 10.85c-.0369242-.2665723-.1797339-.5070103-.3961516-.6669713-.2164178-.159961-.4881744-.22594143-.7538484-.1830287h-13.55c-.2487761.0712207-.4602581.236105-.59.46-.13.22-.06-.06-1.68 7.54h4.79c.5438292-.0903856 1.0582279.2764031 1.15.82v.15h12.78c-.58-2.7-1.1633333-5.4066667-1.75-8.12z" fill="#02a9f4"/><path id="Shape" d="m46 45.06h-4c-4 .26-7 1.25-7 2.44s3.24 2.27 7.5 2.46h1.5c5 0 9-1.12 9-2.5 0-1.15-3-2.15-7-2.4z" fill="#02a9f4"/><path id="Shape" d="m0 29v18h18v-18z" fill="#ffdc00"/><path id="Shape" d="m15.53 17.56c-1.5791247-1.1296096-2.5201687-2.9484656-2.53-4.89v-8.67h-8v8.67c.00074461 1.9417391-.93822712 3.7637914-2.52 4.89-1.55518958 1.1266277-2.47712711 2.9296104-2.48 4.85v6.59h18v-6.59c-.0005472-1.9185936-.9185896-3.7212275-2.47-4.85z" fill="#60a917"/><path id="Shape" d="m-.00002106 47 .00002106 7.72c-.00386566.8457239.52464824 1.6024597 1.32 1.89 4.95274473 1.8507803 10.4072553 1.8507803 15.36 0 .7953518-.2875403 1.3238657-1.0442761 1.32-1.89l.0000211-7.72z" fill="#60a917"/><g fill="#0377bc"><path id="Shape" d="m37.45 10h-.45c.146464-.0460608.303536-.0460608.45 0z"/><path id="Shape" d="m53.45 19h-3c-.58-2.72-1.1633333-5.4366667-1.75-8.15-.042283-.3978545-.3176363-.732212-.7-.85h2.58c.5438292-.0903856 1.0582279.2764031 1.15.82.5666667 2.7333333 1.14 5.46 1.72 8.18z"/><path id="Shape" d="m48 10h-10.55z"/></g><path id="Shape" d="m42 55.5c0 1.38-4 2.5-9 2.5s-9-1.12-9-2.5c0-1.19 3-2.19 7-2.44h4c4 .25 7 1.25 7 2.44z" fill="#02a9f4"/><path id="Shape" d="m53 47.5c0 1.38-4 2.5-9 2.5-.51 0-1 0-1.5 0 7.84-.35 10.38-3.26 3.5-4.54-2.53-.48-5.29-.36 0-.36 4 .21 7 1.21 7 2.4z" fill="#0377bc"/><path id="Shape" d="m46 45.06h-4c0-1.26 0-4.21 0-11.19.5045932-.9297163.8238358-1.9485759.94-3l.06.13c.9770671.0985953 1.9630759.0615779 2.93-.11.12-.01.07-1.6.07 14.17z" fill="#02a9f4"/><path id="Shape" d="m35 38.82v14.24h-4v-14.24c1.321789.2481324 2.678211.2481324 4 0z" fill="#02a9f4"/><path id="Shape" d="m42.79 28.58c0-.19-.09-.38-.13-.58.04.19.09.39.13.58z" fill="#0377bc"/><path id="Shape" d="m43 31v-.05c.4630473-.0845142.9156537-.2186198 1.35-.4 4.75-1.47 7.42-6 6.51-9.92-.39-1.81-.3-1.41-.34-1.58h3c.12.53.22 1.05.34 1.58 1.14 5.07-3.79 10.94-10.86 10.37z" fill="#c81e1e"/><path id="Shape" d="m42.79 28.58c0-.19-.09-.38-.13-.58.04.19.09.39.13.58z" fill="#0377bc"/><path id="Shape" d="m18 22.41v6.59h-3v-6.59c-.0005472-1.9185936-.9185896-3.7212275-2.47-4.85-1.5791247-1.1296096-2.5201687-2.9484656-2.53-4.89v-8.67h3v8.67c.0098313 1.9415344.9508753 3.7603904 2.53 4.89 1.5514104 1.1287725 2.4694528 2.9314064 2.47 4.85z" fill="#549414"/><path id="Shape" d="m18.0000211 47-.0000211 7.72c.0038657.8457239-.5246482 1.6024597-1.32 1.89-2.9279762 1.1013469-6.0598489 1.5550931-9.18 1.33 2.11456345-.1343637 4.1973673-.5826046 6.18-1.33.7953518-.2875403 1.3238657-1.0442761 1.32-1.89v-7.72z" fill="#549414"/><path id="Rectangle-path" d="m15 29h3v18h-3z" fill="#fec108"/><path id="Shape" d="m13 1v3h-8v-3c0-.55228475.44771525-1 1-1h6c.5522847 0 1 .44771525 1 1z" fill="#91562d"/><path id="Shape" d="m42.66 28h-19.32c.66-2.85 1.31-6.17 2-9.15.0775732-.5378747.570503-.9153435 1.11-.85h13.1c.5438292-.0903856 1.0582279.2764031 1.15.82.02.18 1.41 6.83 1.96 9.18z" fill="#02a9f4"/><path id="Shape" d="m43 30.21c0 4.4-4.22 8.79-10 8.79-6.54 0-10.92-5.56-9.79-10.42.05-.19.09-.38.13-.58h19.32c.2121384.718039.3265018 1.461401.34 2.21z" fill="#f44335"/><path id="Shape" d="" fill="#0377bc"/><path id="Shape" d="m42.79 28.58c0-.19-.09-.38-.13-.58.04.19.09.39.13.58z" fill="#0377bc"/></g><g id="Layer_2" fill="#000"><path id="Shape" d="m17.12 17.75c-1.3181768-.9429723-2.1060846-2.4593232-2.12-4.08v-11.67c0-1.1045695-.8954305-2-2-2h-6c-1.1045695 0-2 .8954305-2 2v11.67c-.01321231 1.6184756-.79686635 3.1337877-2.11 4.08-1.8136029 1.3154599-2.88795625 3.4195567-2.89 5.66v32.31c.00356437 1.2682549.8042713 2.3972517 2 2.82 5.17582366 1.9496343 10.8841763 1.9496343 16.06 0 1.1957287-.4227483 1.9964356-1.5517451 2-2.82v-32.31c-.0136278-2.2494669-1.1074842-4.3553266-2.94-5.66zm-10.12-15.75h6v2h-6zm11 45h-16v-16h16zm-.67 9.67c-4.7210744 1.7802969-9.92892555 1.7802969-14.65 0-.42537094-.1429939-.70339147-.5518476-.68-1v-6.67h16.0000182l-.0000182 6.72c.0025692.4272885-.2666378.809-.67.95zm.67-27.67h-16v-5.59c.01408549-1.5844191.77832915-3.0683874 2.06-4 1.84383751-1.3311074 2.93726274-3.46589 2.94-5.74v-7.67h6v7.67c.0155081 2.2599873 1.1075341 4.3771804 2.94 5.7 1.2816709.9316126 2.0459145 2.4155809 2.06 4z"/><path id="Shape" d="m8 20c-1.38 0-4 1-4 5 0 .5522847.44771525 1 1 1s1-.4477153 1-1c0-2.79 1.67-3 2-3 .55228475 0 1-.4477153 1-1s-.44771525-1-1-1z"/><path id="Shape" d="m30.22 22c-.2600045-.0595712-.5330332-.0127967-.7583815.129924-.2253483.1427206-.3843376.3695574-.4416185.630076l-2 9c-.0785984.3572656.0393725.7293244.3094744.9760254s.6512997.3305646 1 .22.6119272-.3987598.6905256-.7560254l2-9c.0587019-.2657496.0065538-.5439454-.1444111-.7703926-.1509648-.2264473-.3877039-.3815824-.6555889-.4296074z"/><path id="Shape" d="m55.77 21.37c-.77-3.22-1.39-6.49-2.09-9.73-.1838868-1.0602558-1.1737244-1.78495825-2.24-1.64h-12.88c-1.0565284-.14651323-2.0421159.5618778-2.24 1.61-.46 2.16-.91 4.29-1.32 6.39h-7.44c-1.0565284-.1465132-2.0421159.5618778-2.24 1.61l-2.08 9.69c-1.17 4.48 2 9.82 7.76 11.28v12.56c-2.43.23-7 1-7 3.36 0 2.76 6.29 3.5 10 3.5s10-.74 10-3.5c0-2.37-4.57-3.13-7-3.36v-2.4c4.83 2.13 18 1.67 18-2.24 0-2.37-4.57-3.13-7-3.36v-12.53c5.82-1.49 8.8-6.89 7.77-11.24zm-9.77 24.63h-2c0-.29 0-.32 0-10.85.3603971-.6782137.6294017-1.4011635.8-2.15.3995691.0262578.8004309.0262578 1.2 0zm-7.7-34h13.43c.7 3.24 1.33 6.51 2.1 9.77.93 4.03-2.64 9.23-8.83 9.23 0-.94.11-.15-2.31-11.35-.1364359-.7184581-.6541211-1.3051681-1.35-1.53l.66-2.9c.0785984-.3572656-.0393725-.7293244-.3094744-.9760254-.2701019-.2467011-.6512997-.3305646-1-.22-.3487003.1105645-.6119272.3987598-.6905256.7560254l-.7 3.22h-2.3c.42-1.95.84-3.93 1.3-6zm-13.12 17.79 2.12-9.79h13.43l2.11 9.78c1.02 4.01-2.69 9.22-8.84 9.22s-9.87-5.17-8.82-9.21zm9.82 11.21v13h-2c0-7.42 0 11 0-13 .6648291.0700004 1.3351709.0700004 2 0zm-1 17c-4.75 0-7.4-1-7.94-1.5.43-.42 2.2-1.11 5.28-1.38.3725409.5511576.9947478.8810023 1.66.88h2c.6652522.0010023 1.2874591-.3288424 1.66-.88 3.08.27 4.85 1 5.28 1.38-.54.5-3.19 1.5-7.94 1.5zm3-17.39c1.8816388-.4666039 3.6065433-1.422201 5-2.77v7.3c-1.7117296.1252092-3.3960857.4991363-5 1.11zm8 9.39c-4.75 0-7.4-1-7.94-1.5.43-.42 2.2-1.11 5.29-1.38.3705564.5482288.9882889.8776862 1.65.88h2c.6617111-.0023138 1.2794436-.3317712 1.65-.88 3.09.27 4.86 1 5.29 1.38-.54.5-3.19 1.5-7.94 1.5z"/></g></g></svg>