<svg height="511pt" viewBox="0 0 511 511.79519" width="511pt" xmlns="http://www.w3.org/2000/svg"><path d="m435.425781 249.734375-23.894531 238.167969c-.867188 8.726562-8.210938 15.367187-16.980469 15.359375h-233.558593c-8.8125-.035157-16.160157-6.753907-16.980469-15.53125l-29.441407-320.425781-2.644531-38.914063v-.59375c-.007812-2.265625.890625-4.441406 2.492188-6.042969 1.601562-1.605468 3.777343-2.5 6.042969-2.492187h184.488281zm0 0" fill="#0377bc"/><path d="m404.875 258.269531-23.890625 238.164063c-.234375 2.421875-1.023437 4.757812-2.304687 6.828125h-217.6875c-8.8125-.035157-16.160157-6.753907-16.980469-15.53125l-29.441407-320.425781-2.644531-38.914063v-.59375h162.476563zm0 0" fill="#02a9f4"/><path d="m421.261719 390.707031-9.730469 97.195313c-.867188 8.726562-8.210938 15.367187-16.980469 15.359375h-44.289062c8.769531.007812 16.113281-6.632813 16.980469-15.359375l25.261718-66.046875c10.570313-9.425781 20.203125-19.859375 28.757813-31.148438zm0 0" fill="#00838f"/><path d="m392.503906 421.855469-6.570312 66.046875c-.867188 8.726562-8.214844 15.367187-16.984375 15.359375h-207.957031c-8.8125-.035157-16.160157-6.753907-16.980469-15.53125l-5.886719-64.597657-2.816406-30.464843c34.386718 44.375 80.808594 72.109375 130.558594 75.863281 2.476562.253906 5.035156.339844 7.59375.425781 1.417968.144531 2.84375.203125 4.269531.171875 42.808593-.910156 83.738281-17.769531 114.773437-47.273437zm0 0" fill="#00bcd4"/><path d="m435.425781 249.734375-14.164062 140.972656c-11.300781 14.902344-24.429688 28.320313-39.085938 39.9375-29.445312 24.292969-66.273437 37.863281-104.445312 38.484375-1.425781.03125-2.851563-.027344-4.269531-.171875-52.5625-1.363281-101.972657-29.695312-138.152344-76.289062l-18.859375-205.140625h256.769531zm0 0" fill="#d84315"/><path d="m409.824219 225.929688-14.164063 183.722656c-4.265625 7.335937-8.789062 14.335937-13.484375 20.992187-29.445312 24.292969-66.273437 37.863281-104.445312 38.484375-1.425781.03125-2.851563-.027344-4.269531-.171875-52.5625-1.363281-101.972657-29.695312-138.152344-76.289062l-18.859375-205.140625h256.769531l30.71875 30.722656zm0 0" fill="#ff5722"/><path d="m458.550781 272.863281-219.222656-219.222656c25.78125-25.878906 59.933594-41.730469 96.34375-44.714844 15.886719-1.355469 31.886719-.261719 47.445313 3.242188 55.105468 12.382812 99.101562 53.785156 114.800781 108.042969 15.699219 54.253906.613281 112.753906-39.367188 152.652343zm0 0" fill="#fec108"/><path d="m444.984375 259.292969-205.65625-205.652344c25.78125-25.878906 59.933594-41.730469 96.34375-44.714844 7.351563.523438 14.65625 1.609375 21.84375 3.242188 51.945313 11.667969 94.25 49.207031 112.015625 99.394531 17.761719 50.191406 8.492188 105.984375-24.546875 147.730469zm0 0" fill="#ffdc00"/><path d="m385.933594 164.914062c-1.476563 4.902344-4.144532 9.359376-7.765625 12.972657-2.472657 2.515625-5.394531 4.542969-8.621094 5.972656l-41.214844-41.214844c1.429688-3.226562 3.457031-6.148437 5.972657-8.621093 10.054687-10.050782 25.65625-11.980469 37.859374-4.683594 12.199219 7.300781 17.875 21.960937 13.769532 35.574218zm0 0" fill="#fec108"/><path d="m347.277344 126.257812c-4.902344 1.476563-9.359375 4.144532-12.972656 7.765626-2.515626 2.472656-4.542969 5.394531-5.972657 8.621093l-66.816406-66.816406c22.289063-20.894531 51.546875-32.753906 82.089844-33.28125l.171875 5.972656zm0 0" fill="#ffeb3a"/><path d="m433.460938 78.726562-55.292969 55.296876c-8.085938-8.070313-19.949219-11.054688-30.890625-7.765626l-3.5-77.738281-.171875-5.972656c.796875-.070313 1.59375-.097656 2.390625-.085937 32.820312-.039063 64.304687 13.015624 87.464844 36.265624zm0 0" fill="#fdd834"/><path d="m469.730469 166.195312c.011719.796876-.015625 1.59375-.085938 2.390626l-5.972656-.171876-77.738281-3.5c3.289062-10.941406.304687-22.804687-7.765625-30.890624l55.292969-55.296876c23.253906 23.164063 36.308593 54.648438 36.269531 87.46875zm0 0" fill="#ffeb3a"/><path d="m469.644531 168.585938c-.503906 30.546874-12.367187 59.8125-33.28125 82.089843l-66.816406-66.816406c3.226563-1.429687 6.148437-3.457031 8.621094-5.972656 3.621093-3.613281 6.289062-8.070313 7.765625-12.972657l77.738281 3.5zm0 0" fill="#fdd834"/><path d="m394.550781 511.796875h-233.515625c-13.253906.054687-24.335937-10.054687-25.492187-23.257813l-29.46875-320.453124-2.644531-39.140626c-.316407-4.714843 1.332031-9.351562 4.5625-12.804687 3.226562-3.453125 7.742187-5.414063 12.46875-5.414063h184.488281c4.714843 0 8.535156 3.820313 8.535156 8.535157 0 4.710937-3.820313 8.535156-8.535156 8.535156h-184.488281l2.625 38.929687 29.449218 320.246094c.386719 4.402344 4.082032 7.773438 8.5 7.753906h233.515625c4.386719.015626 8.066407-3.3125 8.492188-7.679687l23.886719-238.164063c.28125-3.050781 2.179687-5.714843 4.96875-6.984374 2.789062-1.265626 6.042968-.9375 8.527343.855468 2.484375 1.792969 3.8125 4.78125 3.484375 7.828125l-23.886718 238.167969c-1.277344 13.097656-12.308594 23.078125-25.472657 23.046875zm0 0"/><path d="m205.183594 383.796875c-4.273438-.007813-7.882813-3.171875-8.449219-7.40625l-17.066406-128c-.417969-3.027344.816406-6.050781 3.238281-7.917969 2.417969-1.871094 5.652344-2.300781 8.476562-1.132812 2.828126 1.167968 4.8125 3.761718 5.203126 6.792968l17.066406 128c.621094 4.671876-2.660156 8.964844-7.328125 9.585938-.378907.050781-.761719.074219-1.140625.078125zm0 0"/><path d="m171.050781 375.261719c-4.300781-.007813-7.921875-3.210938-8.453125-7.476563l-17.070312-136.53125c-.519532-4.640625 2.789062-8.839844 7.425781-9.417968 4.632813-.578126 8.871094 2.675781 9.507813 7.300781l17.070312 136.535156c.582031 4.675781-2.734375 8.9375-7.410156 9.523437-.355469.042969-.714844.066407-1.070313.066407zm0 0"/><path d="m277.730469 477.660156c-55.402344 0-109.769531-29.070312-149.160157-79.753906-2.890624-3.722656-2.21875-9.082031 1.503907-11.976562 3.71875-2.890626 9.082031-2.21875 11.976562 1.503906 36.128907 46.496094 85.585938 73.160156 135.679688 73.160156 50.394531 0 100.242187-27.359375 136.753906-75.074219 2.875-3.707031 8.203125-4.398437 11.929687-1.542969 3.726563 2.851563 4.449219 8.175782 1.621094 11.917969-39.769531 51.960938-94.550781 81.765625-150.304687 81.765625zm0 0"/><path d="m458.507812 281.394531c-2.261718.003907-4.433593-.898437-6.03125-2.5l-219.179687-219.179687c-3.332031-3.332032-3.332031-8.734375 0-12.066406 63.894531-63.625 167.238281-63.515626 231 .246093 63.761719 63.757813 63.871094 167.105469.246094 231-1.597657 1.601563-3.769531 2.503907-6.035157 2.5zm-206.9375-227.539062 206.761719 206.761719c51.476563-57.964844 48.867188-146-5.949219-200.8125-54.8125-54.816407-142.847656-57.425782-200.8125-5.949219zm0 0"/><path d="m372.964844 191.679688-6.890625-15.609376c2.253906-1.023437 4.296875-2.453124 6.03125-4.21875 4.222656-4.207031 6.597656-9.921874 6.597656-15.882812s-2.375-11.679688-6.597656-15.886719c-8.882813-8.507812-22.886719-8.507812-31.769531 0-1.765626 1.734375-3.195313 3.78125-4.21875 6.035157l-15.609376-6.894532c1.867188-4.1875 4.503907-7.988281 7.765626-11.210937 9.964843-10.089844 24.570312-14.066407 38.277343-10.421875 13.703125 3.640625 24.40625 14.347656 28.046875 28.050781 3.640625 13.707031-.339844 28.3125-10.429687 38.277344-3.21875 3.257812-7.019531 5.890625-11.203125 7.761719zm0 0"/><path d="m372.109375 128.015625 54.796875-54.796875 12.066406 12.066406-54.796875 54.796875zm0 0"/><path d="m385.5 173.457031.765625-17.050781 77.78125 3.496094-.765625 17.050781zm0 0"/><path d="m335.238281 48.910156 17.050781-.765625 3.496094 77.753907-17.050781.765624zm0 0"/><path d="m111.328125 503.261719c0 4.710937-3.820313 8.535156-8.53125 8.535156-4.714844 0-8.535156-3.824219-8.535156-8.535156 0-4.714844 3.820312-8.535157 8.535156-8.535157 4.710937 0 8.53125 3.820313 8.53125 8.535157zm0 0"/><path d="m85.730469 477.660156c0 4.714844-3.820313 8.535156-8.535157 8.535156-4.710937 0-8.53125-3.820312-8.53125-8.535156 0-4.710937 3.820313-8.53125 8.53125-8.53125 4.714844 0 8.535157 3.820313 8.535157 8.53125zm0 0"/><path d="m60.128906 494.726562c0 4.714844-3.820312 8.535157-8.53125 8.535157-4.714844 0-8.535156-3.820313-8.535156-8.535157 0-4.710937 3.820312-8.53125 8.535156-8.53125 4.710938 0 8.53125 3.820313 8.53125 8.53125zm0 0"/><path d="m77.195312 434.996094c0 4.710937-3.820312 8.53125-8.53125 8.53125-4.714843 0-8.535156-3.820313-8.535156-8.53125 0-4.714844 3.820313-8.535156 8.535156-8.535156 4.710938 0 8.53125 3.820312 8.53125 8.535156zm0 0"/><path d="m17.464844 503.261719c0 4.710937-3.820313 8.53125-8.535156 8.53125-4.710938 0-8.53125-3.820313-8.53125-8.53125 0-4.714844 3.820312-8.535157 8.53125-8.535157 4.714843 0 8.535156 3.820313 8.535156 8.535157zm0 0"/><path d="m51.597656 460.59375c0 4.714844-3.824218 8.535156-8.535156 8.535156s-8.535156-3.820312-8.535156-8.535156c0-4.710938 3.824218-8.53125 8.535156-8.53125s8.535156 3.820312 8.535156 8.53125zm0 0"/><path d="m25.996094 477.660156c0 4.714844-3.820313 8.535156-8.535156 8.535156-4.710938 0-8.53125-3.820312-8.53125-8.535156 0-4.710937 3.820312-8.53125 8.53125-8.53125 4.714843 0 8.535156 3.820313 8.535156 8.53125zm0 0"/><path d="m436.363281 259.207031c-3.398437 0-6.46875-2.019531-7.820312-5.136719-1.351563-3.117187-.726563-6.738281 1.589843-9.21875 42.488282-45.355468 41.328126-116.234374-2.613281-160.179687-43.945312-43.941406-114.824219-45.097656-160.179687-2.609375-2.207032 2.179688-5.425782 2.984375-8.402344 2.109375-2.976562-.878906-5.242188-3.300781-5.917969-6.332031-.671875-3.027344.347657-6.183594 2.671875-8.242188 52.085938-48.6875 133.390625-47.316406 183.804688 3.097656 50.414062 50.414063 51.785156 131.71875 3.097656 183.804688-1.609375 1.730469-3.867188 2.710938-6.230469 2.707031zm0 0"/><path d="m111.328125 460.59375c0 4.714844-3.820313 8.535156-8.53125 8.535156-4.714844 0-8.535156-3.820312-8.535156-8.535156 0-4.710938 3.820312-8.53125 8.535156-8.53125 4.710937 0 8.53125 3.820312 8.53125 8.53125zm0 0"/><path d="m375.863281 196.0625h-259.414062c-4.710938 0-8.535157-3.820312-8.535157-8.535156 0-4.710938 3.824219-8.53125 8.535157-8.53125h259.414062c4.710938 0 8.53125 3.820312 8.53125 8.53125 0 4.714844-3.820312 8.535156-8.53125 8.535156zm0 0"/></svg>