<svg id="Capa_1" enable-background="new 0 0 512 512" height="512" viewBox="0 0 512 512" width="512" xmlns="http://www.w3.org/2000/svg"><g><path d="m401.204 85.33h-290.408c.309-1.391.762-2.751 1.349-4.049l17.935-39.652h251.838l17.935 39.652c.589 1.298 1.042 2.658 1.351 4.049z" fill="#f9f6f6"/><path d="m387.122 41.626h-262.244c-5.747 0-10.407-4.659-10.407-10.407v-20.812c.001-5.748 4.66-10.407 10.407-10.407h262.244c5.747 0 10.406 4.659 10.406 10.407v20.813c0 5.747-4.659 10.406-10.406 10.406z" fill="#f9f6f6"/><path d="m387.122 0h-49.803c5.747 0 10.406 4.659 10.406 10.407v20.813c0 5.747-4.659 10.407-10.406 10.407h49.803c5.747 0 10.406-4.659 10.406-10.407v-20.813c0-5.748-4.659-10.407-10.406-10.407z" fill="#e2d8ec"/><path d="m401.204 426.67c-.309 1.391-.752 2.751-1.349 4.049l-17.935 39.651h-251.839l-17.935-39.651c-.597-1.298-1.04-2.658-1.349-4.049z" fill="#f9f6f6"/><path d="m401.204 426.67c-.309 1.391-.752 2.751-1.349 4.049l-17.935 39.651h-24.972l19.769-43.7z" fill="#e2d8ec"/><path d="m401.204 85.33h-24.487l-19.769-43.7h24.972l17.935 39.652c.587 1.297 1.04 2.657 1.349 4.048z" fill="#e2d8ec"/><path d="m401.688 183.156-12.486 30.751 12.486 31.688v176.625c0 1.504-.165 2.998-.484 4.45h-290.408c-.319-1.452-.484-2.946-.484-4.45v-93.376l19.12-34.14-19.12-28.299v-176.625c0-1.504.165-2.998.484-4.45h290.408c.319 1.452.484 2.946.484 4.45z" fill="#dd636e"/><path d="m162.341 383.064v-12.697c0-5.69 4.612-10.302 10.302-10.302h166.713c5.69 0 10.302 4.612 10.302 10.302v12.697c0 5.69-4.612 10.302-10.302 10.302h-166.713c-5.689 0-10.302-4.612-10.302-10.302z" fill="#ffe07d"/><path d="m401.688 183.156-12.486 30.751 12.486 31.688v176.625c0 1.504-.165 2.998-.484 4.45h-24.487v-341.34h24.487c.319 1.452.484 2.946.484 4.45z" fill="#da4a54"/><path d="m387.122 470.374h-262.244c-5.747 0-10.407 4.659-10.407 10.406v20.813c0 5.747 4.659 10.406 10.407 10.406h262.244c5.747 0 10.406-4.659 10.406-10.406v-20.813c0-5.747-4.659-10.406-10.406-10.406z" fill="#f9f6f6"/><path d="m110.309 328.846v-62.44l291.382-83.252v62.439z" fill="#ecf4ff"/><path d="m376.715 252.729 24.976-7.136v-62.439l-24.976 7.136z" fill="#cbe2ff"/><path d="m387.122 470.374h-49.803c5.747 0 10.406 4.659 10.406 10.406v20.813c0 5.747-4.659 10.406-10.406 10.406h49.803c5.747 0 10.406-4.659 10.406-10.406v-20.813c0-5.747-4.659-10.406-10.406-10.406z" fill="#e2d8ec"/></g></svg>