<svg id="Capa_1" enable-background="new 0 0 512 512" height="512" viewBox="0 0 512 512" width="512" xmlns="http://www.w3.org/2000/svg" xmlns:xlink="http://www.w3.org/1999/xlink"><linearGradient id="lg1"><stop offset="0" stop-color="#fff9e2"/><stop offset=".1542" stop-color="#fef8dc"/><stop offset=".3607" stop-color="#fcf4cb"/><stop offset=".5962" stop-color="#f9efaf"/><stop offset=".5974" stop-color="#f9efaf"/><stop offset="1" stop-color="#f4d8a5"/></linearGradient><radialGradient id="SVGID_1_" cx="225.51" cy="-2111.515" gradientTransform="matrix(1 0 0 -2.792 0 -5890.134)" gradientUnits="userSpaceOnUse" r="2.983" xlink:href="#lg1"/><radialGradient id="SVGID_2_" cx="159.077" cy="464.565" gradientTransform="matrix(1 0 0 .765 0 109.052)" gradientUnits="userSpaceOnUse" r="44.829"><stop offset="0" stop-color="#ddeafb"/><stop offset=".4632" stop-color="#bed8fb"/><stop offset=".6165" stop-color="#adc9f2"/><stop offset=".92" stop-color="#80a3da"/><stop offset="1" stop-color="#7398d3"/></radialGradient><radialGradient id="SVGID_3_" cx="175.829" cy="229.983" gradientTransform="matrix(1 0 0 3.338 0 -537.71)" gradientUnits="userSpaceOnUse" r="171.738"><stop offset="0" stop-color="#f4d8bc"/><stop offset=".5145" stop-color="#ecb780"/><stop offset="1" stop-color="#e29375"/></radialGradient><linearGradient id="lg2"><stop offset="0" stop-color="#fff"/><stop offset=".5145" stop-color="#ddeafb"/><stop offset="1" stop-color="#cbe2ff"/></linearGradient><radialGradient id="SVGID_4_" cx="216.665" cy="100.362" gradientTransform="matrix(1.554 0 0 3.338 -109.015 -234.651)" gradientUnits="userSpaceOnUse" r="39.108" xlink:href="#lg2"/><radialGradient id="SVGID_5_" cx="213.538" cy="43.222" gradientTransform="matrix(1.843 0 0 1.111 -173.416 -12.799)" gradientUnits="userSpaceOnUse" r="29.87" xlink:href="#lg2"/><radialGradient id="SVGID_6_" cx="182.691" cy="295.54" gradientTransform="matrix(1 0 0 3.338 0 -690.985)" gradientUnits="userSpaceOnUse" r="186.746"><stop offset="0" stop-color="#e49542"/><stop offset=".184" stop-color="#e3903c"/><stop offset=".4301" stop-color="#e1822b"/><stop offset=".5917" stop-color="#df751c"/><stop offset=".9702" stop-color="#c85929"/></radialGradient><linearGradient id="lg3"><stop offset="0" stop-color="#ddeafb"/><stop offset=".1335" stop-color="#d7e7fb"/><stop offset=".3124" stop-color="#c6ddfb"/><stop offset=".5163" stop-color="#aacdfb"/><stop offset=".5974" stop-color="#9dc6fb"/><stop offset="1" stop-color="#89aada"/></linearGradient><radialGradient id="SVGID_7_" cx="182.691" cy="489.75" gradientTransform="matrix(1 0 0 2.339 0 -669.154)" gradientUnits="userSpaceOnUse" r="143.309" xlink:href="#lg3"/><radialGradient id="SVGID_8_" cx="221.329" cy="121.591" gradientTransform="matrix(1.554 0 0 3.338 -109.015 -284.285)" gradientUnits="userSpaceOnUse" r="61.438" xlink:href="#lg3"/><linearGradient id="lg4"><stop offset="0" stop-color="#fff"/><stop offset=".5145" stop-color="#fff9e2"/><stop offset="1" stop-color="#fbf4c6"/></linearGradient><radialGradient id="SVGID_9_" cx="-156.905" cy="-2145.929" gradientTransform="matrix(1.551 0 0 -1.272 456.891 -2746.507)" gradientUnits="userSpaceOnUse" r="47.446" xlink:href="#lg4"/><radialGradient id="SVGID_10_" cx="-108.569" cy="-2148.827" gradientTransform="matrix(1.551 0 0 -1.272 456.891 -2747.626)" gradientUnits="userSpaceOnUse" r="56.467" xlink:href="#lg1"/><radialGradient id="SVGID_11_" cx="-159.059" cy="-2204.358" gradientTransform="matrix(1.424 0 0 -1.272 439.02 -2769.072)" gradientUnits="userSpaceOnUse" r="62.031" xlink:href="#lg4"/><radialGradient id="SVGID_12_" cx="-151.191" cy="-2229.29" gradientTransform="matrix(1.424 0 0 -1.272 439.02 -2778.7)" gradientUnits="userSpaceOnUse" r="53.529"><stop offset="0" stop-color="#fff9e2"/><stop offset=".5145" stop-color="#f9efaf"/><stop offset=".5953" stop-color="#f8eea7"/><stop offset="1" stop-color="#f6e781"/></radialGradient><radialGradient id="SVGID_13_" cx="-106.573" cy="-2201.411" gradientTransform="matrix(1.424 0 0 -1.272 439.02 -2767.934)" gradientUnits="userSpaceOnUse" r="56.467" xlink:href="#lg1"/><radialGradient id="SVGID_14_" cx="272.594" cy="28.44" gradientTransform="matrix(1 0 0 2.792 0 -50.958)" gradientUnits="userSpaceOnUse" r="6.448" xlink:href="#lg1"/><radialGradient id="SVGID_15_" cx="220.678" cy="28.44" gradientTransform="matrix(1 0 0 2.792 0 -50.958)" gradientUnits="userSpaceOnUse" r="6.448" xlink:href="#lg4"/><radialGradient id="SVGID_16_" cx="309.733" cy="22.027" gradientTransform="matrix(1 0 0 2.792 0 -39.467)" gradientUnits="userSpaceOnUse" r="6.448" xlink:href="#lg1"/><radialGradient id="SVGID_17_" cx="244.636" cy="19.027" gradientTransform="matrix(1 0 0 2.792 0 -34.091)" gradientUnits="userSpaceOnUse" r="6.448" xlink:href="#lg1"/><radialGradient id="SVGID_18_" cx="204.667" cy="16.315" gradientTransform="matrix(1 0 0 2.792 0 -29.233)" gradientUnits="userSpaceOnUse" r="5.293" xlink:href="#lg4"/><radialGradient id="SVGID_19_" cx="290.063" cy="-2112.193" gradientTransform="matrix(1 0 0 -2.792 0 -5891.348)" gradientUnits="userSpaceOnUse" r="5.293" xlink:href="#lg1"/><radialGradient id="SVGID_20_" cx="223.84" cy="39.135" gradientTransform="matrix(1.843 0 0 1.111 -173.416 -13.976)" gradientUnits="userSpaceOnUse" r="62.916" xlink:href="#lg3"/><radialGradient id="SVGID_21_" cx="191.094" cy="238.309" gradientTransform="matrix(1 0 0 1.612 0 -144.582)" gradientUnits="userSpaceOnUse" r="198.169"><stop offset="0" stop-color="#e7ecf1"/><stop offset=".3662" stop-color="#e1e8ee"/><stop offset=".5974" stop-color="#dae4ea"/><stop offset=".697" stop-color="#d2dce3"/><stop offset=".8542" stop-color="#bbc5cf"/><stop offset="1" stop-color="#a0aab7"/></radialGradient><radialGradient id="SVGID_22_" cx="431.333" cy="2818.686" gradientTransform="matrix(.931 0 0 .112 -147.994 175.411)" gradientUnits="userSpaceOnUse" r="184.091"><stop offset="0" stop-color="#cbe2ff"/><stop offset=".1435" stop-color="#d6e8ff"/><stop offset=".4962" stop-color="#ecf4ff"/><stop offset=".8982" stop-color="#fff"/></radialGradient><g><path d="m220.09 1.671v6.86c0 1.48 1.2 2.68 2.68 2.68 1.48 0 2.68-1.2 2.68-2.68v-6.86z" fill="url(#SVGID_1_)"/><path d="m131.135 463.02v10.368c0 9.239 7.49 16.729 16.729 16.729h35c-9.239 0-8.259-34.447-8.259-34.447z" fill="url(#SVGID_2_)"/><path d="m131.135 463.02v-242.048c0-35.935 23.632-66.35 56.202-76.553 5.452-1.708 9.093-6.856 9.093-12.569v-3.791l40.011-11.012 67.872 57.388c0 5.713-138.178 288.585-138.178 288.585z" fill="url(#SVGID_3_)"/><path d="m196.43 128.059v-81.46l35-4.693 7.786 36-7.786 50.153z" fill="url(#SVGID_4_)"/><path d="m194.748 46.599c-3.204 0-5.801-2.597-5.801-5.801 0-3.204 2.597-5.801 5.801-5.801h35c-3.204 0-3.204 11.603 0 11.603h-35z" fill="url(#SVGID_5_)"/><path d="m315.57 131.85v-3.791h-84.14v3.791c0 5.713-3.641 10.861-9.093 12.569-32.57 10.203-56.202 40.618-56.202 76.553v242.048h214.729v-242.048c0-35.935-23.632-66.35-56.202-76.553-5.451-1.708-9.092-6.855-9.092-12.569z" fill="url(#SVGID_6_)"/><path d="m364.135 490.118h-181.27c-9.239 0-16.729-7.49-16.729-16.729v-10.369h214.729v10.368c0 9.24-7.49 16.73-16.73 16.73z" fill="url(#SVGID_7_)"/><path d="m231.43 46.599h84.139v81.46h-84.139z" fill="url(#SVGID_8_)"/><path d="m197.748 0c-2.775 0-5.025 2.25-5.025 5.025v24.946c0 2.775 2.25 5.025 5.025 5.025h34.952l24.758-20.83-24.758-14.166z" fill="url(#SVGID_9_)"/><path d="m314.3 34.996h-81.6c-2.775 0-5.025-2.25-5.025-5.025v-24.946c0-2.775 2.25-5.025 5.025-5.025h81.6c2.775 0 5.025 2.25 5.025 5.025v24.946c0 2.775-2.25 5.025-5.025 5.025z" fill="url(#SVGID_10_)"/><path d="m196.43 46.599 12.116 18.709c5.273 8.142 13.567 13.698 22.884 15.58l6.423-37.006z" fill="url(#SVGID_11_)"/><path d="m273.5 81.595c-12.1 0-42.07-34.996-42.07-34.996v34.289c2.304.466 4.671.707 7.07.707z" fill="url(#SVGID_12_)"/><path d="m273.5 81.595c-12.1 0-23.376-6.131-29.953-16.287l-12.117-18.709h84.139l-12.117 18.709c-6.576 10.156-17.852 16.287-29.952 16.287z" fill="url(#SVGID_13_)"/><path d="m272.534 34.996h-5.36v-17.942c0-1.48 1.2-2.68 2.68-2.68 1.48 0 2.68 1.2 2.68 2.68z" fill="url(#SVGID_14_)"/><path d="m220.619 34.996h-5.36v-17.942c0-1.48 1.2-2.68 2.68-2.68 1.48 0 2.68 1.2 2.68 2.68z" fill="url(#SVGID_15_)"/><path d="m306.993 28.583c-1.48 0-2.68-1.2-2.68-2.68v-15.262c0-1.48 1.2-2.68 2.68-2.68 1.48 0 2.68 1.2 2.68 2.68v15.262c0 1.48-1.2 2.68-2.68 2.68z" fill="url(#SVGID_16_)"/><path d="m241.896 25.583c-1.48 0-2.68-1.2-2.68-2.68v-15.262c0-1.48 1.2-2.68 2.68-2.68 1.48 0 2.68 1.2 2.68 2.68v15.262c.001 1.48-1.199 2.68-2.68 2.68z" fill="url(#SVGID_17_)"/><path d="m201.927 21.696c-1.48 0-2.68-1.2-2.68-2.68v-11.566c0-1.48 1.2-2.68 2.68-2.68 1.48 0 2.68 1.2 2.68 2.68v11.566c0 1.48-1.2 2.68-2.68 2.68z" fill="url(#SVGID_18_)"/><path d="m284.643 0v14.246c0 1.48 1.2 2.68 2.68 2.68 1.48 0 2.68-1.2 2.68-2.68v-14.246z" fill="url(#SVGID_19_)"/><path d="m317.252 34.996h-87.503c-3.204 0-5.801 2.597-5.801 5.801 0 3.204 2.597 5.801 5.801 5.801h87.503c3.204 0 5.801-2.597 5.801-5.801 0-3.203-2.597-5.801-5.801-5.801z" fill="url(#SVGID_20_)"/><path d="m197.053 207.634h152.894v212.765h-152.894z" fill="url(#SVGID_21_)"/><path d="m256 512c98.643 0 178.608-9.797 178.608-21.882h-357.216c0 12.085 79.965 21.882 178.608 21.882z" fill="url(#SVGID_22_)"/></g></svg>